<svg id="Capa_2" data-name="Capa 2" xmlns="http://www.w3.org/2000/svg" viewBox="0 0 500 501.8"><defs><style>.cls-1{fill:#71c1a9;}.cls-2{opacity:0.36;}.cls-3{fill:#0c4054;}.cls-4,.cls-6{font-size:94.51px;font-family:a_Writ;letter-spacing:0.03em;}.cls-4{fill:#3c3c3b;}.cls-5{letter-spacing:0.07em;}.cls-20,.cls-6{fill:#fff;}.cls-7{fill:#998e91;}.cls-8{fill:#e2ae79;}.cls-10,.cls-11,.cls-15,.cls-9{fill:#635b5d;}.cls-9{opacity:0.76;}.cls-10{opacity:0.79;}.cls-11{opacity:0.57;}.cls-12{fill:#fdedf2;}.cls-13,.cls-14{fill:#8f7350;}.cls-13{opacity:0.78;}.cls-15{opacity:0.81;}.cls-16{fill:#d9b47e;stroke:#230e0f;stroke-width:8px;}.cls-16,.cls-17,.cls-18,.cls-21,.cls-22{stroke-miterlimit:10;}.cls-17{fill:#927b60;stroke:#210c0d;stroke-width:10px;}.cls-18{fill:#895a33;stroke:#210e0f;stroke-width:5px;}.cls-19{fill:#21120c;}.cls-21{fill:none;stroke:#21120c;stroke-width:7px;}.cls-22{font-size:16.68px;fill:#e30613;stroke:#fff;stroke-width:0.4px;font-family:Flood;}</style></defs><title>avi1</title><rect class="cls-1" y="0.5" width="500" height="500"/><g class="cls-2"><path class="cls-3" d="M29.5,53.5a3.4,3.4,0,0,0-1.2,1.2,5.2,5.2,0,0,0-.5,2.5c-.2,3.2-.4,3.1-.2,4a4.7,4.7,0,0,0,1,2.7A3.9,3.9,0,0,0,30.7,65a6.3,6.3,0,0,0,2.7-.1,6.5,6.5,0,0,0,2.6-.6,2.9,2.9,0,0,0,1.5-.9,2.5,2.5,0,0,0,.9-1.8c.2-.7,1.2-4.8-1.4-7.3a5.9,5.9,0,0,0-4.2-1.6A7.5,7.5,0,0,0,29.5,53.5Z" transform="translate(0 0.5)"/><path class="cls-3" d="M20.6,3.9a3.9,3.9,0,0,0-1,1.8,2.8,2.8,0,0,0,0,1.6,41.3,41.3,0,0,1,.5,5.1l1.3,7.8L23.1,29c.1,1.3.6,2.8.8,4.7s.4,2.3.9,4.6c1,4.3,1.3,4.9,1.7,5.4a5.3,5.3,0,0,0,3.2,2.4,4.3,4.3,0,0,0,4-.7c1.1-.9,1.2-2.6,1.4-4.6s.5-5.3.5-9.3c.3-10.8-.1-18.5-.1-20.7A16.2,16.2,0,0,0,35.6,9a15.9,15.9,0,0,0-.4-4.1c-.7-1.4-2.4-1.9-4.1-2.4C26.4,1.1,22,2.3,20.6,3.9Z" transform="translate(0 0.5)"/><path class="cls-3" d="M80.3,28.7a2.8,2.8,0,0,0,.9-.7,2,2,0,0,0,.3-1.4c.3-1.7.4-1.7.3-2.2a3.2,3.2,0,0,0-.6-1.5,3.3,3.3,0,0,0-1.3-.7H78.1l-1.7.3-1,.4a2.3,2.3,0,0,0-.7,1c-.1.4-.9,2.7.8,4.2a4.6,4.6,0,0,0,2.7.9A5.1,5.1,0,0,0,80.3,28.7Z" transform="translate(0 0.5)"/><path class="cls-3" d="M84.9,56.5a3.3,3.3,0,0,0,.7-1,1.3,1.3,0,0,0,0-.9c-.1-.7-.1-1.6-.2-2.8l-.6-4.4-.9-5c0-.7-.3-1.5-.4-2.6s-.2-1.3-.5-2.6-.7-2.7-.9-3A3.7,3.7,0,0,0,80,32.7a3.4,3.4,0,0,0-2.6.4,3.2,3.2,0,0,0-1,2.5,41.9,41.9,0,0,0-.6,5.2c-.5,6-.4,10.3-.5,11.5a6.7,6.7,0,0,1-.1,1,6.2,6.2,0,0,0,.2,2.3c.4.8,1.5,1.1,2.6,1.4C81,57.9,83.9,57.3,84.9,56.5Z" transform="translate(0 0.5)"/><path class="cls-3" d="M67.7,146.7a3.5,3.5,0,0,0-1.5.9,4.9,4.9,0,0,0-1,2.3c-.9,3.1-1.1,3-1.2,3.9a5.5,5.5,0,0,0,.4,2.8,4.1,4.1,0,0,0,1.8,1.6,8.4,8.4,0,0,0,2.7.5,12.9,12.9,0,0,0,2.6.1,3.5,3.5,0,0,0,1.7-.6,3.3,3.3,0,0,0,1.3-1.5c.3-.7,2.3-4.5.3-7.5a5.8,5.8,0,0,0-3.8-2.5A6,6,0,0,0,67.7,146.7Z" transform="translate(0 0.5)"/><path class="cls-3" d="M70.4,96.4A3.7,3.7,0,0,0,69,97.9a3,3,0,0,0-.4,1.6c-.1,1.2-.3,2.8-.7,5l-.5,7.9-.4,9c-.1,1.2,0,2.8-.2,4.8a27.7,27.7,0,0,0-.2,4.7c-.1,4.3.1,5,.4,5.6a5.5,5.5,0,0,0,2.5,3.1c.3.1,2.3,1.2,4.1.2s1.8-2.3,2.4-4.2,1.8-5,2.7-8.9c2.7-10.5,4-18.1,4.6-20.2,0,0,.2-.7.4-1.8a12.5,12.5,0,0,0,.6-4c-.3-1.5-1.9-2.4-3.4-3.3C76.6,95,72.1,95.2,70.4,96.4Z" transform="translate(0 0.5)"/><path class="cls-3" d="M31.3,120.5l-.5.6a1.3,1.3,0,0,0-.1,1.1,15.4,15.4,0,0,0,.1,1.7,1.5,1.5,0,0,0,.7.9,1.8,1.8,0,0,0,1.1.3l1.5-.3,1.3-.4a2,2,0,0,0,.7-.6c.1,0,.3-.3.4-.8a2.5,2.5,0,0,0-1.2-2.8,4.2,4.2,0,0,0-2.3-.3Z" transform="translate(0 0.5)"/><path class="cls-3" d="M23.7,101.2a1.2,1.2,0,0,0-.4.8,1.5,1.5,0,0,0,0,.7,12.4,12.4,0,0,1,.6,2l1.2,3.1,1.4,3.4c.1.5.5,1.1.7,1.8l.8,1.8c.7,1.7.9,1.9,1.2,2a2.5,2.5,0,0,0,1.8.7,2.8,2.8,0,0,0,2-.6,2.6,2.6,0,0,0,.5-2,34.4,34.4,0,0,0-.3-3.9c-.5-4.4-1.2-7.5-1.3-8.3a3.7,3.7,0,0,0-.1-.8,3.5,3.5,0,0,0-.4-1.6,3.3,3.3,0,0,0-2.3-.6C26.5,99.6,24.3,100.5,23.7,101.2Z" transform="translate(0 0.5)"/><path class="cls-3" d="M127.5,107.5l-.7.5a1.5,1.5,0,0,0-.4.9c-.2,1.3-.3,1.3-.3,1.7a1.7,1.7,0,0,0,.4,1.1,2.8,2.8,0,0,0,1,.6h2.9l.9-.3a1.7,1.7,0,0,0,.5-.6,2.6,2.6,0,0,0-.3-3.1,4,4,0,0,0-2.2-.9A4.8,4.8,0,0,0,127.5,107.5Z" transform="translate(0 0.5)"/><path class="cls-3" d="M125.5,86.9a1.3,1.3,0,0,0-.6.6,1,1,0,0,0-.1.7v2.1l.2,3.2.5,3.7c0,.5.1,1.2.1,2s.1.9.3,1.9.4,2.1.6,2.3a2.4,2.4,0,0,0,1.5,1.2,3.3,3.3,0,0,0,2.2-.1c.6-.3.8-1,1-1.8a29.8,29.8,0,0,0,.8-3.8c.7-4.4.9-7.5,1-8.4a2.4,2.4,0,0,0,.1-.7c.1-.9.2-1.4,0-1.7s-1.1-.9-2-1.2S126.3,86.3,125.5,86.9Z" transform="translate(0 0.5)"/><path class="cls-3" d="M165.7,78.7a4.2,4.2,0,0,0-2.1,1.2c-.8.7-.9,1.4-1.3,3-1.1,4-1.3,3.9-1.3,5.1a4.8,4.8,0,0,0,.8,3.6,4.9,4.9,0,0,0,2.7,2c.8.4,1.9.4,4,.6a13.4,13.4,0,0,0,3.8,0,6.6,6.6,0,0,0,2.5-.7,4.9,4.9,0,0,0,1.8-2.1c.4-.8,2.9-5.9-.3-9.8a10.7,10.7,0,0,0-10.6-2.9Z" transform="translate(0 0.5)"/><path class="cls-3" d="M165.2,13.2a4.6,4.6,0,0,0-1.9,2,4.1,4.1,0,0,0-.5,2.1,49.7,49.7,0,0,1-.5,6.6V34.1l.3,11.7c-.1,1.6.1,3.7,0,6.2a47.9,47.9,0,0,0,.2,6.1c.3,5.7.6,6.6,1,7.3a8.8,8.8,0,0,0,4,4c.4.1,3.5,1.4,6.1.1s2.4-3,3.1-5.5A121,121,0,0,0,180,52.3c3.1-13.7,4.4-23.6,5.1-26.3,0,0,.2-1,.4-2.4s.8-4.1.5-5.2-2.9-3.1-5.3-4.2C174.2,11.2,167.6,11.6,165.2,13.2Z" transform="translate(0 0.5)"/><path class="cls-3" d="M119.6,188.7a2.8,2.8,0,0,0-1.2,1.2,5.2,5.2,0,0,0-.5,2.5c-.2,3.2-.4,3.1-.2,4a4.7,4.7,0,0,0,1,2.7,3.7,3.7,0,0,0,2,1.1,6.8,6.8,0,0,0,2.8-.1,11.9,11.9,0,0,0,2.6-.5l1.5-.9a4,4,0,0,0,.9-1.8c.2-.8,1.2-4.9-1.4-7.4a6.5,6.5,0,0,0-4.3-1.6A7,7,0,0,0,119.6,188.7Z" transform="translate(0 0.5)"/><path class="cls-3" d="M110.7,139.1a3.9,3.9,0,0,0-1,1.8,2.8,2.8,0,0,0,0,1.6c.2,1.2.3,2.8.5,5.1l1.3,7.8,1.7,8.8c.1,1.3.6,2.8.8,4.7a39,39,0,0,0,.9,4.6c1,4.3,1.3,4.9,1.6,5.4a6.7,6.7,0,0,0,3.2,2.5c.3,0,2.6.6,4.1-.8s1.2-2.6,1.3-4.6a89.9,89.9,0,0,0,.6-9.3c.3-10.8-.2-18.5-.1-20.7v-1.8c0-2.2,0-3.3-.4-4s-2.3-2-4-2.5C116.5,136.4,112.1,137.6,110.7,139.1Z" transform="translate(0 0.5)"/><path class="cls-3" d="M183.1,159a2.4,2.4,0,0,0,.9-.6,2.6,2.6,0,0,0,.3-1.4c.2-1.7.4-1.7.3-2.2a2.8,2.8,0,0,0-.6-1.5,3.3,3.3,0,0,0-1.3-.7h-1.8l-1.7.3-1.1.4a2.4,2.4,0,0,0-.6,1c-.1.4-.9,2.7.8,4.2a4.6,4.6,0,0,0,2.7.9A4.8,4.8,0,0,0,183.1,159Z" transform="translate(0 0.5)"/><path class="cls-3" d="M187.7,186.9a3.3,3.3,0,0,0,.7-1,2.6,2.6,0,0,0,0-.9c-.1-.7-.1-1.6-.2-2.9l-.6-4.3-.9-5c-.1-.7-.3-1.5-.4-2.6s-.2-1.3-.5-2.6-.7-2.8-.9-3a3.6,3.6,0,0,0-4.7-1.2,3.5,3.5,0,0,0-1,2.6,41.9,41.9,0,0,0-.6,5.2c-.5,6-.4,10.3-.5,11.5a4.5,4.5,0,0,0-.1,1,6.6,6.6,0,0,0,.2,2.3c.4.8,1.5,1.1,2.6,1.4C183.8,188.3,186.7,187.7,187.7,186.9Z" transform="translate(0 0.5)"/><path class="cls-3" d="M157.8,275.9a3.5,3.5,0,0,0-1.5.9,4.1,4.1,0,0,0-1,2.3c-.9,3.1-1.1,3-1.2,3.9a5.5,5.5,0,0,0,.4,2.8,4,4,0,0,0,1.7,1.6,7.3,7.3,0,0,0,2.8.5,13,13,0,0,0,2.6.1,3.9,3.9,0,0,0,1.7-.6,3.3,3.3,0,0,0,1.3-1.5c.3-.7,2.3-4.5.3-7.5a6.2,6.2,0,0,0-3.8-2.5A7.1,7.1,0,0,0,157.8,275.9Z" transform="translate(0 0.5)"/><path class="cls-3" d="M160.4,225.6a4.9,4.9,0,0,0-1.4,1.5,9,9,0,0,0-.4,1.6,29.7,29.7,0,0,1-.6,5l-.5,7.9-.4,9c-.2,1.3-.1,2.9-.3,4.8s-.1,2.3-.1,4.7c-.1,4.4.1,5,.3,5.6a6.3,6.3,0,0,0,2.6,3.1c.2.1,2.3,1.2,4.1.2s1.8-2.2,2.4-4.2,1.7-4.9,2.7-8.9c2.7-10.5,4-18.1,4.6-20.1,0,0,.2-.8.4-1.9a12.3,12.3,0,0,0,.6-3.9c-.3-1.6-1.9-2.5-3.5-3.4C166.7,224.2,162.2,224.4,160.4,225.6Z" transform="translate(0 0.5)"/><path class="cls-3" d="M99.8,264.4a1.7,1.7,0,0,0-.6.6,2.8,2.8,0,0,0-.1,1c.1,1.3,0,1.3.2,1.7a1.4,1.4,0,0,0,.7,1l1.1.3,1.5-.3,1.3-.5a1.8,1.8,0,0,0,.7-.5,1.4,1.4,0,0,0,.4-.8c0-.3.3-2.1-1.2-2.9a3.2,3.2,0,0,0-2.3-.2A4.1,4.1,0,0,0,99.8,264.4Z" transform="translate(0 0.5)"/><path class="cls-3" d="M92.1,245.1a2.5,2.5,0,0,0-.4.8c0,.3.1.5.1.7a8.1,8.1,0,0,1,.6,2l1.1,3L95,255a16,16,0,0,0,.7,1.9,12,12,0,0,0,.7,1.8,6.8,6.8,0,0,0,1.2,2,3,3,0,0,0,1.8.7,3.2,3.2,0,0,0,2.1-.7c.5-.4.5-1.1.5-2s-.1-2.2-.3-3.8c-.5-4.4-1.2-7.5-1.3-8.4a3.2,3.2,0,0,0-.1-.7c-.2-.9-.2-1.4-.5-1.6s-1.3-.6-2.2-.7C95,243.4,92.8,244.3,92.1,245.1Z" transform="translate(0 0.5)"/><path class="cls-3" d="M217.6,236.8a.9.9,0,0,0-.7.4,1.9,1.9,0,0,0-.4,1,5.1,5.1,0,0,0-.3,1.6,1.2,1.2,0,0,0,.4,1.1,2.2,2.2,0,0,0,1,.6h2.9l.8-.2a2.3,2.3,0,0,0,.6-.7,2.7,2.7,0,0,0-.4-3.1,4.3,4.3,0,0,0-2.1-.9A4.4,4.4,0,0,0,217.6,236.8Z" transform="translate(0 0.5)"/><path class="cls-3" d="M215.6,216.1a2.3,2.3,0,0,0-.7.6,2.3,2.3,0,0,0-.1.7,12.2,12.2,0,0,1,.1,2.1l.2,3.2.4,3.7c0,.5.2,1.2.2,2a8.9,8.9,0,0,0,.3,1.9,5.8,5.8,0,0,0,.5,2.3,3.1,3.1,0,0,0,1.6,1.2,3.3,3.3,0,0,0,2.2-.1c.6-.3.8-1,.9-1.8a18.8,18.8,0,0,0,.8-3.8c.8-4.3.9-7.5,1.1-8.4a2.4,2.4,0,0,0,.1-.7c.1-.9.2-1.3,0-1.7s-1.1-.9-2-1.2S216.4,215.5,215.6,216.1Z" transform="translate(0 0.5)"/><path class="cls-3" d="M255.8,207.9a4.2,4.2,0,0,0-2.1,1.2c-.8.7-.9,1.4-1.3,3-1.1,4-1.3,3.9-1.4,5.1a5.4,5.4,0,0,0,.9,3.6,5.1,5.1,0,0,0,2.6,2,11.3,11.3,0,0,0,4.1.6,13.6,13.6,0,0,0,3.8,0,5.5,5.5,0,0,0,2.5-.7,5,5,0,0,0,1.7-2.1c.5-.8,3-5.9-.2-9.7a11.2,11.2,0,0,0-10.6-3Z" transform="translate(0 0.5)"/><path class="cls-3" d="M255.2,142.4a6.6,6.6,0,0,0-1.9,2,4.9,4.9,0,0,0-.4,2.1c0,1.6-.2,3.6-.5,6.6v10.2l.2,11.7c-.1,1.6.2,3.7.1,6.2a47.9,47.9,0,0,0,.2,6.1c.3,5.7.6,6.6,1,7.3a7.8,7.8,0,0,0,4,4c.4.1,3.5,1.4,6,.1s2.5-3,3.2-5.5a121,121,0,0,0,3.1-11.7c3.1-13.7,4.4-23.6,5-26.3a18.2,18.2,0,0,0,.5-2.4c.5-2.7.8-4.1.5-5.2s-3-3.1-5.4-4.2C264.3,140.4,257.7,140.8,255.2,142.4Z" transform="translate(0 0.5)"/><path class="cls-3" d="M298.7,53.5a3.6,3.6,0,0,0-1.3,1.2,5.2,5.2,0,0,0-.5,2.5c-.1,3.2-.3,3.1-.2,4a4.9,4.9,0,0,0,1.1,2.7,3.7,3.7,0,0,0,2,1.1,6.8,6.8,0,0,0,2.8-.1,6.3,6.3,0,0,0,2.5-.6,3.3,3.3,0,0,0,2.5-2.7c.2-.7,1.2-4.8-1.5-7.3a5.8,5.8,0,0,0-4.2-1.6A7,7,0,0,0,298.7,53.5Z" transform="translate(0 0.5)"/><path class="cls-3" d="M289.8,3.9a3.9,3.9,0,0,0-1,1.8,4.8,4.8,0,0,0-.1,1.6c.2,1.2.4,2.8.6,5.1l1.2,7.8,1.7,8.8c.2,1.3.6,2.8.9,4.7a39,39,0,0,0,.9,4.6c.9,4.3,1.2,4.9,1.6,5.4a5.3,5.3,0,0,0,3.2,2.4,4.3,4.3,0,0,0,4-.7c1.1-.9,1.3-2.6,1.4-4.6a92,92,0,0,0,.6-9.3c.2-10.8-.2-18.5-.1-20.7V9a12.3,12.3,0,0,0-.4-4.1c-.6-1.4-2.3-1.9-4.1-2.4C295.5,1.1,291.2,2.3,289.8,3.9Z" transform="translate(0 0.5)"/><path class="cls-3" d="M362.2,29.8a2.1,2.1,0,0,0,.8-.6,2.6,2.6,0,0,0,.4-1.4c.2-1.8.3-1.7.3-2.2a2.5,2.5,0,0,0-.6-1.5,2.3,2.3,0,0,0-1.3-.7h-1.9l-1.7.2-1,.5a2.4,2.4,0,0,0-.6,1c-.2.4-.9,2.7.7,4.1a4.5,4.5,0,0,0,2.8,1A5.2,5.2,0,0,0,362.2,29.8Z" transform="translate(0 0.5)"/><path class="cls-3" d="M366.7,57.7a2,2,0,0,0,.7-1,1.9,1.9,0,0,0,.1-1,17,17,0,0,1-.2-2.8l-.7-4.3-.8-5c-.1-.7-.3-1.6-.5-2.6a21,21,0,0,0-.4-2.6c-.5-2.4-.7-2.8-1-3.1a3.4,3.4,0,0,0-2-1.4,3.7,3.7,0,0,0-2.6.3c-.8.5-.9,1.5-1.1,2.6s-.5,2.9-.6,5.2c-.4,6-.3,10.3-.4,11.5a4.5,4.5,0,0,0-.1,1,7.3,7.3,0,0,0,.1,2.3c.4.8,1.5,1.1,2.7,1.4C362.9,59.1,365.8,58.5,366.7,57.7Z" transform="translate(0 0.5)"/><path class="cls-3" d="M336.8,146.7a3.3,3.3,0,0,0-1.4.9,4.9,4.9,0,0,0-1.1,2.3c-.9,3.1-1,3-1.1,3.9a4.6,4.6,0,0,0,.4,2.8,4,4,0,0,0,1.7,1.6,9.9,9.9,0,0,0,2.7.5,14,14,0,0,0,2.7.1,3.9,3.9,0,0,0,1.7-.6,5.4,5.4,0,0,0,1.3-1.5c.3-.7,2.2-4.5.2-7.5a5.9,5.9,0,0,0-3.7-2.5A6.3,6.3,0,0,0,336.8,146.7Z" transform="translate(0 0.5)"/><path class="cls-3" d="M339.5,96.4a3.7,3.7,0,0,0-1.4,1.5,4.5,4.5,0,0,0-.4,1.6c-.1,1.2-.3,2.8-.6,5l-.6,7.9-.3,9c-.2,1.2-.1,2.8-.3,4.8s-.1,2.3-.2,4.7c0,4.3.2,5,.4,5.6a5.7,5.7,0,0,0,2.6,3.1c.2.1,2.3,1.2,4.1.2s1.7-2.3,2.3-4.2,1.8-5,2.7-8.9c2.7-10.5,4.1-18.1,4.7-20.2,0,0,.2-.7.4-1.8s.7-3.1.5-4-1.8-2.4-3.4-3.3C345.7,95,341.2,95.2,339.5,96.4Z" transform="translate(0 0.5)"/><path class="cls-3" d="M293.8,135.2a1.6,1.6,0,0,0-.5.6c-.2.3-.2.5-.1,1a5.4,5.4,0,0,0,.1,1.7,1.5,1.5,0,0,0,.7,1,2.6,2.6,0,0,0,1.1.2c.3.1.7-.1,1.5-.3l1.3-.4.7-.5a1.9,1.9,0,0,0,.4-.8c0-.3.3-2.1-1.2-2.9a3.2,3.2,0,0,0-2.3-.2A4.1,4.1,0,0,0,293.8,135.2Z" transform="translate(0 0.5)"/><path class="cls-3" d="M286.2,115.8a2.6,2.6,0,0,0-.5.9,3.5,3.5,0,0,0,.1.6,12.4,12.4,0,0,1,.6,2l1.2,3.1,1.4,3.4c.1.5.5,1.1.7,1.9a5.9,5.9,0,0,0,.8,1.7c.7,1.7.9,1.9,1.1,2.1a3.9,3.9,0,0,0,1.9.7,3.1,3.1,0,0,0,2-.7c.5-.4.5-1.2.5-2a32.9,32.9,0,0,0-.3-3.8c-.5-4.4-1.2-7.5-1.3-8.4a4.5,4.5,0,0,0-.1-.8,3,3,0,0,0-.4-1.5c-.5-.6-1.4-.6-2.3-.7C289,114.2,286.8,115.1,286.2,115.8Z" transform="translate(0 0.5)"/><path class="cls-3" d="M393.5,101.6l-.7.4c-.3.3-.3.5-.4,1s-.4,1.3-.3,1.6a1.5,1.5,0,0,0,.4,1.2,2.2,2.2,0,0,0,1,.6h2.8l.9-.3c.1,0,.4-.2.6-.7a2.5,2.5,0,0,0-.4-3,3.2,3.2,0,0,0-2.2-.9A4.3,4.3,0,0,0,393.5,101.6Z" transform="translate(0 0.5)"/><path class="cls-3" d="M391.4,80.9a2.2,2.2,0,0,0-.6.7,2,2,0,0,0-.1.7,7.2,7.2,0,0,1,0,2.1l.3,3.2.4,3.7c0,.5.2,1.1.2,1.9s.1,1,.2,2,.4,2,.6,2.3a3.2,3.2,0,0,0,1.6,1.1,2.9,2.9,0,0,0,2.1,0c.6-.3.8-1,1-1.8a34.3,34.3,0,0,0,.8-3.8c.7-4.4.9-7.5,1.1-8.4a4.5,4.5,0,0,1,.1-.8,4,4,0,0,0,0-1.6c-.3-.7-1.1-.9-2-1.3A8.2,8.2,0,0,0,391.4,80.9Z" transform="translate(0 0.5)"/><path class="cls-3" d="M430.7,78.2a5.8,5.8,0,0,0-2.1,1.2c-.7.8-.8,1.5-1.3,3.1-1,4-1.3,3.9-1.3,5.1a5.9,5.9,0,0,0,.8,3.6,6.5,6.5,0,0,0,2.7,2c.8.4,1.9.4,4.1.6a20.7,20.7,0,0,0,3.8,0,7.3,7.3,0,0,0,2.5-.8,5.2,5.2,0,0,0,1.7-2c.5-.9,3-5.9-.2-9.8a10.5,10.5,0,0,0-5.8-3.1A12.6,12.6,0,0,0,430.7,78.2Z" transform="translate(0 0.5)"/><path class="cls-3" d="M430.2,12.7a6.3,6.3,0,0,0-1.9,2.1,4.9,4.9,0,0,0-.4,2.1c0,1.5-.2,3.6-.5,6.5V33.7l.2,11.6c-.1,1.7.2,3.8.1,6.3s0,3.1.1,6.1c.4,5.7.7,6.5,1.1,7.3a7.4,7.4,0,0,0,4,3.9c.3.2,3.5,1.5,6,.2s2.4-3,3.1-5.5a99.6,99.6,0,0,0,3.2-11.7c3.1-13.7,4.4-23.7,5-26.3l.5-2.4c.5-2.8.7-4.2.4-5.2s-2.9-3.1-5.3-4.2C439.3,10.8,432.6,11.2,430.2,12.7Z" transform="translate(0 0.5)"/><path class="cls-3" d="M389.4,201.5a3.6,3.6,0,0,0-1.3,1.2,4.5,4.5,0,0,0-.4,2.5c-.2,3.2-.4,3.1-.3,4.1a4.6,4.6,0,0,0,1.1,2.6,3.1,3.1,0,0,0,2,1.1,6.8,6.8,0,0,0,2.8-.1,11.8,11.8,0,0,0,2.5-.5,3.7,3.7,0,0,0,1.6-.9,5.4,5.4,0,0,0,.9-1.8c.2-.7,1.2-4.9-1.4-7.4a7.3,7.3,0,0,0-4.3-1.6A7,7,0,0,0,389.4,201.5Z" transform="translate(0 0.5)"/><path class="cls-3" d="M380.5,151.9a4.5,4.5,0,0,0-1,1.8,5.4,5.4,0,0,0-.1,1.7c.2,1.1.4,2.7.6,5l1.2,7.8,1.7,8.8c.2,1.3.6,2.8.9,4.7a35.5,35.5,0,0,0,.9,4.6c.9,4.3,1.3,4.9,1.6,5.4a5.8,5.8,0,0,0,3.2,2.5c.3,0,2.5.6,4.1-.7s1.2-2.7,1.3-4.7a89.9,89.9,0,0,0,.6-9.3c.2-10.8-.2-18.5-.1-20.6V157c0-2.2,0-3.3-.4-4s-2.3-2-4.1-2.5C386.2,149.2,381.9,150.4,380.5,151.9Z" transform="translate(0 0.5)"/><path class="cls-3" d="M447.6,149.2a2.1,2.1,0,0,0,.8-.6,2.6,2.6,0,0,0,.4-1.4c.2-1.7.3-1.7.2-2.2a1.8,1.8,0,0,0-.6-1.5,2.4,2.4,0,0,0-1.3-.7,5.1,5.1,0,0,0-1.8,0l-1.7.3-1,.4a2.4,2.4,0,0,0-.6,1c-.2.4-1,2.7.7,4.2a4.8,4.8,0,0,0,2.7.9A5.4,5.4,0,0,0,447.6,149.2Z" transform="translate(0 0.5)"/><path class="cls-3" d="M452.1,177.1a3.3,3.3,0,0,0,.7-1,1.6,1.6,0,0,0,.1-.9,19.5,19.5,0,0,1-.2-2.9L452,168l-.8-5c-.1-.7-.4-1.5-.5-2.6a21,21,0,0,0-.4-2.6c-.6-2.4-.8-2.8-1-3a3.4,3.4,0,0,0-2-1.5,4,4,0,0,0-2.7.3c-.7.5-.8,1.5-1,2.6s-.5,2.9-.6,5.2c-.4,6-.4,10.3-.5,11.5v1a5.2,5.2,0,0,0,.1,2.3c.4.8,1.5,1.1,2.6,1.4C448.3,178.5,451.2,177.9,452.1,177.1Z" transform="translate(0 0.5)"/><path class="cls-3" d="M426.9,275.9a3.5,3.5,0,0,0-1.5.9,6.3,6.3,0,0,0-1,2.3c-.9,3.1-1.1,3-1.1,3.9a4,4,0,0,0,.4,2.8,3.5,3.5,0,0,0,1.7,1.6,6.7,6.7,0,0,0,2.7.5,12.9,12.9,0,0,0,2.6.1,3.2,3.2,0,0,0,1.7-.6,3.3,3.3,0,0,0,1.3-1.5c.4-.7,2.3-4.5.3-7.5a6.2,6.2,0,0,0-3.8-2.5A7.2,7.2,0,0,0,426.9,275.9Z" transform="translate(0 0.5)"/><path class="cls-3" d="M429.6,225.6a3.7,3.7,0,0,0-1.4,1.5,3,3,0,0,0-.4,1.6c-.1,1.2-.3,2.8-.6,5l-.6,7.9-.4,9c-.1,1.3,0,2.9-.2,4.8a45.5,45.5,0,0,0-.2,4.7c0,4.4.1,5,.4,5.6a5.9,5.9,0,0,0,2.5,3.1c.3.1,2.3,1.2,4.1.2s1.8-2.2,2.4-4.2a85.3,85.3,0,0,0,2.7-8.9c2.7-10.5,4.1-18.1,4.6-20.1l.5-1.9c.4-2.1.7-3.1.5-3.9s-1.8-2.5-3.4-3.4C435.8,224.2,431.3,224.4,429.6,225.6Z" transform="translate(0 0.5)"/><path class="cls-3" d="M383.8,254.1l-.6.6c-.2.3-.1.6-.1,1.1a10.8,10.8,0,0,0,.1,1.6c.2.4.3.8.7,1a2.3,2.3,0,0,0,1.2.3l1.4-.3a2.8,2.8,0,0,0,1.3-.5,1.4,1.4,0,0,0,.8-.5,1.2,1.2,0,0,0,.3-.8,2.4,2.4,0,0,0-1.2-2.8,4.2,4.2,0,0,0-2.3-.3A3.5,3.5,0,0,0,383.8,254.1Z" transform="translate(0 0.5)"/><path class="cls-3" d="M376.1,234.8a2.5,2.5,0,0,0-.4.8.8.8,0,0,0,.1.7c.2.5.3,1.1.6,2l1.1,3,1.4,3.5a17.1,17.1,0,0,1,.7,1.8l.8,1.8c.8,1.6,1,1.9,1.2,2a2.5,2.5,0,0,0,1.8.7,3,3,0,0,0,2.1-.6,2.3,2.3,0,0,0,.4-2,30.5,30.5,0,0,0-.2-3.9c-.6-4.4-1.3-7.5-1.3-8.3a3.8,3.8,0,0,1-.1-.8,4.9,4.9,0,0,0-.5-1.6,3,3,0,0,0-2.3-.6A8.3,8.3,0,0,0,376.1,234.8Z" transform="translate(0 0.5)"/><path class="cls-3" d="M474.6,215.3a1.3,1.3,0,0,0-.8.2,1.6,1.6,0,0,0-.6.9,5,5,0,0,0-.7,1.5,1.7,1.7,0,0,0,.1,1.2,2.2,2.2,0,0,0,.9.8l1.4.4,1.3.3h.9a1.5,1.5,0,0,0,.8-.5c.1-.2,1.3-1.7.3-3.1a3.2,3.2,0,0,0-1.9-1.3A4,4,0,0,0,474.6,215.3Z" transform="translate(0 0.5)"/><path class="cls-3" d="M477.5,194.7a1.6,1.6,0,0,0-.7.5,1.1,1.1,0,0,0-.3.6,14.3,14.3,0,0,1-.5,2l-.5,3.2-.5,3.7c-.1.5-.1,1.2-.3,2s-.1.9-.2,1.9a7.5,7.5,0,0,0,0,2.4,3.2,3.2,0,0,0,1.3,1.5,2.6,2.6,0,0,0,2.1.4c.7-.1,1-.7,1.4-1.5s1-1.9,1.6-3.4c1.8-4.1,2.7-7.2,3.1-8l.3-.7a4.5,4.5,0,0,0,.4-1.6c-.1-.7-.9-1.1-1.7-1.7S478.5,194.3,477.5,194.7Z" transform="translate(0 0.5)"/><path class="cls-3" d="M309.8,267.5a4.8,4.8,0,0,0-2.1,1.4c-.8.8-.9,1.6-1.4,3.3-1.1,4.4-1.3,4.3-1.4,5.7a7.4,7.4,0,0,0,.8,4,5.6,5.6,0,0,0,2.7,2.1,10.7,10.7,0,0,0,4,.6,17.3,17.3,0,0,0,3.9-.1,5.3,5.3,0,0,0,2.4-.8,5.3,5.3,0,0,0,1.8-2.3c.5-1,3.1-6.5-.1-10.8a9.5,9.5,0,0,0-5.7-3.3A10.6,10.6,0,0,0,309.8,267.5Z" transform="translate(0 0.5)"/><path class="cls-3" d="M310.2,195.4a6.1,6.1,0,0,0-1.9,2.2,4.9,4.9,0,0,0-.5,2.3,65,65,0,0,1-.6,7.3l-.2,11.3v12.8c-.2,1.8.1,4.1-.1,6.9s0,3.4.1,6.7c.2,6.3.5,7.2.9,8a8.2,8.2,0,0,0,4,4.3c.3.2,3.5,1.6,6,.1s2.5-3.3,3.2-6.1a131.2,131.2,0,0,0,3.4-12.9c3.2-15.2,4.7-26.1,5.4-29.1l.5-2.6c.5-3.1.8-4.6.5-5.8s-2.9-3.4-5.3-4.5C319.3,193.1,312.7,193.6,310.2,195.4Z" transform="translate(0 0.5)"/><path class="cls-3" d="M225.2,90.6a5.1,5.1,0,0,0,1.3-.9,4.7,4.7,0,0,0,.6-2c.3-2.5.5-2.5.3-3.2a3,3,0,0,0-.9-2.1,4.1,4.1,0,0,0-2-1,12.3,12.3,0,0,0-2.8,0,9,9,0,0,0-2.5.4,4.4,4.4,0,0,0-1.6.6,3.5,3.5,0,0,0-1,1.4c-.2.6-1.4,3.9,1.1,5.9a6.9,6.9,0,0,0,4.2,1.4A8.4,8.4,0,0,0,225.2,90.6Z" transform="translate(0 0.5)"/><path class="cls-3" d="M232.1,130.2a3.5,3.5,0,0,0,1.1-1.4,3.2,3.2,0,0,0,.1-1.3,19.6,19.6,0,0,1-.3-4l-1-6.2-1.3-7.1c-.1-1-.5-2.2-.7-3.7a31.5,31.5,0,0,0-.7-3.7c-.8-3.5-1.1-3.9-1.4-4.4a6.3,6.3,0,0,0-3.1-2,5.3,5.3,0,0,0-4.1.5c-1.1.7-1.3,2-1.6,3.6a64.7,64.7,0,0,0-.9,7.4c-.7,8.6-.6,14.7-.7,16.4a10.1,10.1,0,0,0-.1,1.5,7.1,7.1,0,0,0,.2,3.2c.6,1.1,2.3,1.6,4,2C226.2,132.2,230.7,131.4,232.1,130.2Z" transform="translate(0 0.5)"/><path class="cls-3" d="M253.7,60.4l-.8.2a1.6,1.6,0,0,0-.6.9c-.6,1.2-.7,1.1-.8,1.5a2.6,2.6,0,0,0,.1,1.2,3,3,0,0,0,.9.8,3.4,3.4,0,0,0,1.4.5l1.3.3h.9a1.2,1.2,0,0,0,.8-.5,2.7,2.7,0,0,0,.4-3.1,4.2,4.2,0,0,0-1.9-1.3A4.5,4.5,0,0,0,253.7,60.4Z" transform="translate(0 0.5)"/><path class="cls-3" d="M257,39.9a1.6,1.6,0,0,0-.7.5,1.1,1.1,0,0,0-.3.6c-.1.5-.3,1.1-.5,2l-.6,3.2-.6,3.7a18.1,18.1,0,0,1-.3,1.9c-.1.5-.1,1-.2,2s-.2,2.1-.1,2.3a3.4,3.4,0,0,0,1.2,1.6c.2,0,1.2.7,2.1.5a2.8,2.8,0,0,0,1.5-1.5c.4-.9,1.1-1.9,1.7-3.5,1.8-4,2.8-7,3.2-7.8l.3-.7c.3-.8.5-1.3.4-1.6s-.8-1.2-1.6-1.7S258,39.6,257,39.9Z" transform="translate(0 0.5)"/><path class="cls-3" d="M487,92.9a2.6,2.6,0,0,0,1.3-.9c.5-.5.5-1,.6-2s.5-2.4.4-3.2a3.2,3.2,0,0,0-.9-2.1,4.5,4.5,0,0,0-2-1,14.6,14.6,0,0,0-2.8.1l-2.6.3a4.6,4.6,0,0,0-1.6.7,3,3,0,0,0-1,1.4c-.2.5-1.4,3.8,1.2,5.9a7.2,7.2,0,0,0,4.2,1.3A8.2,8.2,0,0,0,487,92.9Z" transform="translate(0 0.5)"/><path class="cls-3" d="M494,132.6a3.3,3.3,0,0,0,1-1.4,2.3,2.3,0,0,0,.1-1.4c-.1-.9-.2-2.2-.3-4l-1-6.2-1.3-7c-.1-1.1-.5-2.3-.6-3.8s-.4-1.9-.8-3.7c-.8-3.4-1.1-3.9-1.4-4.3a5.8,5.8,0,0,0-3.1-2.1c-.3,0-2.5-.5-4.1.5s-1.3,2-1.5,3.6a67,67,0,0,0-1,7.4c-.7,8.6-.5,14.7-.7,16.4a10.1,10.1,0,0,0-.1,1.5,7,7,0,0,0,.2,3.2c.6,1.2,2.3,1.6,4,2.1C488.1,134.6,492.5,133.7,494,132.6Z" transform="translate(0 0.5)"/><path class="cls-3" d="M479.1,31.7l-.8.3c-.3.1-.4.3-.6.8s-.7,1.1-.8,1.5a2.5,2.5,0,0,0,.1,1.2,2,2,0,0,0,.9.8,3.4,3.4,0,0,0,1.4.5l1.3.3h.9a1.5,1.5,0,0,0,.8-.5,2.5,2.5,0,0,0,.4-3,3.9,3.9,0,0,0-1.9-1.4A4.9,4.9,0,0,0,479.1,31.7Z" transform="translate(0 0.5)"/><path class="cls-3" d="M482.4,11.2a2.6,2.6,0,0,0-.8.5,1,1,0,0,0-.2.6c-.1.5-.3,1.2-.5,2l-.6,3.2-.6,3.7c-.1.5-.1,1.2-.3,2a12.5,12.5,0,0,0-.3,1.9c-.2,1.8-.1,2.1,0,2.3a3,3,0,0,0,1.2,1.6,3.2,3.2,0,0,0,2.1.5,2.3,2.3,0,0,0,1.4-1.5c.5-.9,1.1-1.9,1.8-3.4,1.8-4.1,2.8-7.1,3.2-7.9l.3-.7a5,5,0,0,0,.4-1.6c-.1-.7-.9-1.2-1.7-1.7S483.4,10.9,482.4,11.2Z" transform="translate(0 0.5)"/><path class="cls-3" d="M47.9,197a4.1,4.1,0,0,0,1.2-.9c.5-.5.5-1,.6-2s.5-2.5.4-3.2a3,3,0,0,0-.9-2.1,4.1,4.1,0,0,0-2-1,12.5,12.5,0,0,0-2.8,0l-2.6.4a3.3,3.3,0,0,0-1.6.7,3.9,3.9,0,0,0-1,1.4c-.2.5-1.4,3.8,1.2,5.9a7.2,7.2,0,0,0,4.2,1.3A8.7,8.7,0,0,0,47.9,197Z" transform="translate(0 0.5)"/><path class="cls-3" d="M54.8,236.6a3.5,3.5,0,0,0,1.1-1.4,1.9,1.9,0,0,0,0-1.3c-.1-.9-.2-2.2-.3-4l-.9-6.2-1.4-7.1c-.1-1-.5-2.2-.6-3.7a20.9,20.9,0,0,0-.8-3.7c-.7-3.4-1-3.9-1.4-4.4a5.8,5.8,0,0,0-3.1-2c-.3,0-2.5-.6-4.1.5s-1.3,2-1.5,3.6a67,67,0,0,0-1,7.4c-.6,8.6-.5,14.7-.7,16.4a10.1,10.1,0,0,0-.1,1.5c0,1.7-.1,2.6.2,3.2s2.3,1.6,4,2C48.9,238.6,53.3,237.8,54.8,236.6Z" transform="translate(0 0.5)"/><path class="cls-3" d="M19.3,252.5a1.8,1.8,0,0,0,.9-.7,2.1,2.1,0,0,0,.3-1.3c.2-1.8.4-1.8.3-2.3a3.2,3.2,0,0,0-.6-1.5,5.7,5.7,0,0,0-1.3-.7,6.1,6.1,0,0,0-1.8.1,4.1,4.1,0,0,0-1.7.2,2.7,2.7,0,0,0-1.1.5,1.8,1.8,0,0,0-.6,1c-.1.4-.9,2.6.8,4.1a5,5,0,0,0,2.7,1A7,7,0,0,0,19.3,252.5Z" transform="translate(0 0.5)"/><path class="cls-3" d="M23.9,280.3a2.4,2.4,0,0,0,.7-1,2.6,2.6,0,0,0,0-.9c-.1-.7-.1-1.5-.2-2.8l-.6-4.4-.9-4.9c-.1-.7-.3-1.6-.4-2.7s-.2-1.3-.5-2.6-.7-2.7-.9-3a4.1,4.1,0,0,0-2.1-1.4,3.2,3.2,0,0,0-2.6.3,3.2,3.2,0,0,0-1,2.5,44.4,44.4,0,0,0-.6,5.2c-.5,6-.4,10.3-.5,11.5a6.3,6.3,0,0,0-.1,1.1,5.6,5.6,0,0,0,.2,2.2c.4.8,1.5,1.1,2.6,1.5C20,281.7,22.9,281.1,23.9,280.3Z" transform="translate(0 0.5)"/><path class="cls-3" d="M476.2,495.1a3.2,3.2,0,0,0,1.3-1.1,5.7,5.7,0,0,0,.5-2.6c.1-3.1.3-3.1.2-4a5.2,5.2,0,0,0-1-2.6,4.6,4.6,0,0,0-2.1-1.2,14.7,14.7,0,0,0-2.8.1l-2.5.6a3.7,3.7,0,0,0-1.6.9,4.4,4.4,0,0,0-.9,1.8c-.2.7-1.2,4.8,1.5,7.4a6,6,0,0,0,4.2,1.5A5.9,5.9,0,0,0,476.2,495.1Z" transform="translate(0 0.5)"/><path class="cls-3" d="M13.1,181.4a2.1,2.1,0,0,0-.8.6,2.6,2.6,0,0,0-.4,1.4c-.2,1.8-.3,1.7-.3,2.3a3.2,3.2,0,0,0,.6,1.5,2.8,2.8,0,0,0,1.3.6h1.9l1.6-.2a2.2,2.2,0,0,0,1.1-.5,2.4,2.4,0,0,0,.6-1c.1-.4.9-2.7-.7-4.1a4.5,4.5,0,0,0-2.8-1A5.2,5.2,0,0,0,13.1,181.4Z" transform="translate(0 0.5)"/><path class="cls-3" d="M8.6,153.6a2.4,2.4,0,0,0-.7,1,3.4,3.4,0,0,0-.1.9,17,17,0,0,1,.2,2.8l.7,4.4.8,4.9c.1.7.4,1.6.5,2.6a18.6,18.6,0,0,0,.4,2.6c.5,2.4.7,2.8,1,3.1a3.4,3.4,0,0,0,2,1.4A3.7,3.7,0,0,0,16,177c.8-.5.9-1.4,1.1-2.6s.5-2.9.6-5.1c.4-6.1.4-10.4.5-11.5v-1.1a4.5,4.5,0,0,0-.1-2.2c-.4-.9-1.5-1.2-2.6-1.5C12.4,152.2,9.6,152.7,8.6,153.6Z" transform="translate(0 0.5)"/><path class="cls-3" d="M431.2,445.3a2.9,2.9,0,0,0,1.4-.8,5.4,5.4,0,0,0,1.1-2.4c.9-3,1-2.9,1.1-3.9a4.7,4.7,0,0,0-.4-2.8,3.6,3.6,0,0,0-1.7-1.5,9.1,9.1,0,0,0-2.7-.6,9.5,9.5,0,0,0-2.6,0,3.7,3.7,0,0,0-1.8.5,5.4,5.4,0,0,0-1.3,1.5c-.3.7-2.2,4.5-.2,7.6a5.8,5.8,0,0,0,3.7,2.4A6.3,6.3,0,0,0,431.2,445.3Z" transform="translate(0 0.5)"/><path class="cls-3" d="M428.4,495.7a4.3,4.3,0,0,0,1.4-1.6,2.8,2.8,0,0,0,.4-1.6c.1-1.2.3-2.7.7-5l.5-7.9.4-8.9c.2-1.3.1-2.9.3-4.8s.1-2.4.1-4.7c.1-4.4-.1-5.1-.3-5.6a5.4,5.4,0,0,0-2.6-3.1,4.5,4.5,0,0,0-4.1-.3c-1.2.7-1.8,2.3-2.4,4.2s-1.7,5-2.7,8.9c-2.7,10.5-4,18.1-4.6,20.2,0,0-.2.7-.4,1.8a12.8,12.8,0,0,0-.6,4c.3,1.6,1.8,2.4,3.4,3.3C422.2,497,426.7,496.8,428.4,495.7Z" transform="translate(0 0.5)"/><path class="cls-3" d="M482.5,429.5a1.6,1.6,0,0,0,.5-.6,1.5,1.5,0,0,0,.2-1c-.1-1.4,0-1.3-.2-1.7a1.4,1.4,0,0,0-.7-1,1.8,1.8,0,0,0-1.1-.3l-1.5.3-1.3.5a1.8,1.8,0,0,0-.7.5,1.4,1.4,0,0,0-.4.8c0,.3-.3,2.1,1.2,2.9a3.9,3.9,0,0,0,2.3.2A4.1,4.1,0,0,0,482.5,429.5Z" transform="translate(0 0.5)"/><path class="cls-3" d="M490.1,448.8a1.2,1.2,0,0,0,.4-.8.8.8,0,0,0-.1-.7c-.1-.4-.3-1-.5-2l-1.2-3-1.4-3.4c-.1-.5-.5-1.1-.7-1.9a17.3,17.3,0,0,0-.8-1.8c-.7-1.6-.9-1.8-1.1-2a3.1,3.1,0,0,0-1.9-.7,3.1,3.1,0,0,0-2,.7c-.5.4-.5,1.1-.5,2a34.6,34.6,0,0,0,.3,3.8c.5,4.4,1.2,7.5,1.3,8.4a3.2,3.2,0,0,0,.1.7,3.2,3.2,0,0,0,.4,1.6c.4.6,1.4.6,2.3.7C487.3,450.5,489.5,449.6,490.1,448.8Z" transform="translate(0 0.5)"/><path class="cls-3" d="M379.6,457a1.3,1.3,0,0,0,.7-.4,1.9,1.9,0,0,0,.4-1,5.6,5.6,0,0,0,.3-1.6,1.2,1.2,0,0,0-.4-1.1,1.6,1.6,0,0,0-1-.6h-2.9c-.3.1-.6.1-.8.3a2.3,2.3,0,0,0-.6.7,2.7,2.7,0,0,0,.4,3.1,4.3,4.3,0,0,0,2.1.9Z" transform="translate(0 0.5)"/><path class="cls-3" d="M381.6,477.7a1.3,1.3,0,0,0,.6-.7.7.7,0,0,0,.1-.6v-2.1l-.2-3.3-.4-3.6c0-.6-.2-1.2-.2-2a8.9,8.9,0,0,0-.3-1.9,5.8,5.8,0,0,0-.5-2.3,3.1,3.1,0,0,0-1.6-1.2,3.3,3.3,0,0,0-2.2.1c-.6.3-.8,1-1,1.8s-.5,2.1-.8,3.7c-.7,4.4-.9,7.6-1,8.4a2.8,2.8,0,0,0-.1.8c-.1.9-.2,1.3,0,1.6s1.1,1,2,1.3C378.4,478.5,380.8,478.3,381.6,477.7Z" transform="translate(0 0.5)"/><path class="cls-3" d="M328.8,480.5a5.1,5.1,0,0,0,2.1-1.2c.7-.7.9-1.5,1.3-3,1.1-4,1.3-3.9,1.3-5.1a5.7,5.7,0,0,0-.8-3.7,6.8,6.8,0,0,0-2.7-2,14.3,14.3,0,0,0-4-.5,13.4,13.4,0,0,0-3.8,0,5.2,5.2,0,0,0-2.5.7,4.4,4.4,0,0,0-1.8,2c-.4.9-2.9,5.9.3,9.8a9.5,9.5,0,0,0,5.7,3.1A12.5,12.5,0,0,0,328.8,480.5Z" transform="translate(0 0.5)"/><path class="cls-3" d="M330.5,499.5a3,3,0,0,0,1.2-.3c.3-.1.2-.3.2-.4a.7.7,0,0,1-.1-.5,9.4,9.4,0,0,0-.4-1.6l-.3-.8a1.4,1.4,0,0,0-.2-.6l-1-2.1c0-.3-.4-.7-.5-1.2a12.9,12.9,0,0,0-.6-1.2c-.7-1.2-1-1.4-1.4-1.5a12.8,12.8,0,0,0-3.3-1.1,21.8,21.8,0,0,0-4.5-.6c-1.3.1-1.6.4-2,.9a13.3,13.3,0,0,0-1.4,2c-1.2,2.5-1.4,4.4-1.7,4.8a1.2,1.2,0,0,0-.1.5c-.2.5.1.6,0,1-.2,4.2,1.7,2.3,4.4,2.7A42.1,42.1,0,0,0,330.5,499.5Z" transform="translate(0 0.5)"/><path class="cls-3" d="M394.6,377a3.5,3.5,0,0,0,1.6-.7,4.9,4.9,0,0,0,1.3-2.2c1.3-2.9,1.4-2.7,1.6-3.7a4.5,4.5,0,0,0,0-2.8,4.1,4.1,0,0,0-1.6-1.8,8.9,8.9,0,0,0-2.6-.8,10,10,0,0,0-2.6-.4,3.8,3.8,0,0,0-1.8.3,4,4,0,0,0-1.4,1.4c-.4.6-2.9,4.1-1.2,7.4a5.6,5.6,0,0,0,3.4,2.9A7.1,7.1,0,0,0,394.6,377Z" transform="translate(0 0.5)"/><path class="cls-3" d="M385.6,426.6a3.9,3.9,0,0,0,1.6-1.3,4,4,0,0,0,.6-1.6,41.3,41.3,0,0,1,1.3-4.9l1.5-7.7,1.5-8.9c.3-1.2.4-2.8.8-4.7a34.1,34.1,0,0,0,.8-4.6c.6-4.4.5-5,.3-5.7a5.4,5.4,0,0,0-2.1-3.4c-.2-.1-2.1-1.4-4-.7s-2.1,2-2.9,3.9a86.3,86.3,0,0,0-3.8,8.5c-4,10.1-6.3,17.4-7.1,19.4l-.7,1.7c-.7,2.1-1.1,3.1-1,3.9s1.5,2.7,3,3.8C379.3,427.2,383.8,427.6,385.6,426.6Z" transform="translate(0 0.5)"/><path class="cls-3" d="M333.2,405.3a2.1,2.1,0,0,0-.8.6,2.6,2.6,0,0,0-.4,1.4c-.2,1.8-.3,1.8-.2,2.3a2.3,2.3,0,0,0,.5,1.5,2.7,2.7,0,0,0,1.4.6,5,5,0,0,0,1.8,0,4.1,4.1,0,0,0,1.7-.2,2.4,2.4,0,0,0,1-.5,1.8,1.8,0,0,0,.6-1c.2-.4.9-2.7-.7-4.1a5.2,5.2,0,0,0-2.7-1A5.4,5.4,0,0,0,333.2,405.3Z" transform="translate(0 0.5)"/><path class="cls-3" d="M328.7,377.5a2.4,2.4,0,0,0-.7,1,3.4,3.4,0,0,0-.1.9c.1.6.2,1.5.3,2.8l.6,4.4.9,4.9c0,.7.3,1.6.4,2.7a20.1,20.1,0,0,0,.4,2.5c.6,2.5.8,2.8,1,3.1a3.4,3.4,0,0,0,2,1.4,3.4,3.4,0,0,0,2.7-.3c.7-.5.8-1.4,1-2.5a44.4,44.4,0,0,0,.6-5.2c.4-6,.4-10.3.5-11.5v-1.1a4.5,4.5,0,0,0-.1-2.2c-.4-.8-1.5-1.2-2.6-1.5C332.5,376.1,329.7,376.7,328.7,377.5Z" transform="translate(0 0.5)"/><path class="cls-3" d="M349.6,288.6a3.3,3.3,0,0,0,1.4-.9c.6-.5.7-1.1,1.1-2.3.9-3,1-2.9,1.1-3.9a4.7,4.7,0,0,0-.4-2.8,4,4,0,0,0-1.7-1.6l-2.7-.5a7.1,7.1,0,0,0-2.7,0,2.8,2.8,0,0,0-1.7.5,5.4,5.4,0,0,0-1.3,1.5c-.3.7-2.3,4.5-.3,7.5a6,6,0,0,0,3.8,2.5A6.3,6.3,0,0,0,349.6,288.6Z" transform="translate(0 0.5)"/><path class="cls-3" d="M346.8,338.9a3.7,3.7,0,0,0,1.4-1.5,3,3,0,0,0,.4-1.6c.1-1.2.3-2.8.7-5l.5-7.9.4-9c.2-1.2.1-2.8.3-4.7s.1-2.4.1-4.7c.1-4.4-.1-5.1-.3-5.7a6.1,6.1,0,0,0-2.6-3.1c-.2-.1-2.3-1.2-4.1-.2s-1.8,2.3-2.4,4.2-1.7,5-2.7,8.9c-2.7,10.5-4,18.1-4.6,20.2,0,0-.2.7-.4,1.8a12.5,12.5,0,0,0-.6,4c.3,1.5,1.8,2.4,3.4,3.3C340.6,340.3,345.1,340.1,346.8,338.9Z" transform="translate(0 0.5)"/><path class="cls-3" d="M407.5,300.2a1.7,1.7,0,0,0,.6-.6,2.8,2.8,0,0,0,.1-1c-.1-1.4,0-1.3-.2-1.7a1.4,1.4,0,0,0-.7-1,1.8,1.8,0,0,0-1.1-.3l-1.4.3-1.3.5-.8.5a1.4,1.4,0,0,0-.4.8c0,.3-.3,2.1,1.2,2.9a3.9,3.9,0,0,0,2.3.2A4.1,4.1,0,0,0,407.5,300.2Z" transform="translate(0 0.5)"/><path class="cls-3" d="M415.1,319.5a1.9,1.9,0,0,0,.5-.8c0-.3-.1-.5-.1-.7a8.1,8.1,0,0,1-.6-2l-1.1-3-1.5-3.4a16,16,0,0,0-.7-1.9,12,12,0,0,0-.7-1.8,6.8,6.8,0,0,0-1.2-2,3,3,0,0,0-1.8-.7,3.2,3.2,0,0,0-2.1.7c-.5.4-.5,1.1-.5,2s.1,2.1.3,3.8c.5,4.4,1.2,7.5,1.3,8.4a3.2,3.2,0,0,0,.1.7,3.2,3.2,0,0,0,.4,1.6c.5.6,1.4.6,2.3.7C412.3,321.2,414.5,320.3,415.1,319.5Z" transform="translate(0 0.5)"/><path class="cls-3" d="M289.7,327.7l.7-.4a2.3,2.3,0,0,0,.4-1c.2-1.3.3-1.2.3-1.6a1.9,1.9,0,0,0-.4-1.2,2.3,2.3,0,0,0-1-.5l-1.5-.2h-1.4l-.9.3a1.6,1.6,0,0,0-.5.7,2.6,2.6,0,0,0,.3,3.1,3.7,3.7,0,0,0,2.2.8A4.8,4.8,0,0,0,289.7,327.7Z" transform="translate(0 0.5)"/><path class="cls-3" d="M291.7,348.4a2.2,2.2,0,0,0,.6-.7,2,2,0,0,0,.1-.7v-2l-.3-3.3-.4-3.7a17.6,17.6,0,0,0-.2-1.9,8.7,8.7,0,0,0-.2-2c-.3-1.7-.4-2-.6-2.2a2.8,2.8,0,0,0-1.5-1.2,3.1,3.1,0,0,0-2.2,0,2.7,2.7,0,0,0-1,1.8c-.2,1-.6,2.2-.8,3.8-.7,4.4-.9,7.6-1.1,8.4a4.5,4.5,0,0,1-.1.8,4,4,0,0,0,0,1.6c.3.7,1.2,1,2.1,1.3A8,8,0,0,0,291.7,348.4Z" transform="translate(0 0.5)"/><path class="cls-3" d="M251.5,356.5a4.2,4.2,0,0,0,2.1-1.2c.7-.7.9-1.4,1.3-3,1-4,1.3-3.9,1.3-5.1a5.9,5.9,0,0,0-.8-3.6,5.3,5.3,0,0,0-2.7-2,10.7,10.7,0,0,0-4-.6,14.5,14.5,0,0,0-3.9,0,5.1,5.1,0,0,0-2.4.7,4.9,4.9,0,0,0-1.8,2.1c-.4.8-3,5.8.2,9.7a10.2,10.2,0,0,0,5.8,3.2A10.6,10.6,0,0,0,251.5,356.5Z" transform="translate(0 0.5)"/><path class="cls-3" d="M251.9,422a4.6,4.6,0,0,0,1.9-2,4.1,4.1,0,0,0,.5-2.1,49.7,49.7,0,0,1,.5-6.6V401.1l-.2-11.7c.1-1.6-.2-3.7-.1-6.2s0-3.1-.1-6.1c-.4-5.7-.7-6.5-1.1-7.3a7.8,7.8,0,0,0-4-4c-.3-.1-3.5-1.4-6-.1s-2.4,3-3.1,5.5a94.4,94.4,0,0,0-3.2,11.7c-3.1,13.7-4.4,23.6-5.1,26.3,0,0-.2,1-.4,2.4s-.8,4.1-.5,5.2,2.9,3.1,5.3,4.2C242.9,424,249.5,423.6,251.9,422Z" transform="translate(0 0.5)"/><path class="cls-3" d="M243.2,474.6a3.8,3.8,0,0,0,1.2-1.1,5.5,5.5,0,0,0,.5-2.5c.2-3.2.3-3.2.2-4.1a5.2,5.2,0,0,0-1-2.6,4.6,4.6,0,0,0-2.1-1.2,9.7,9.7,0,0,0-2.7.2,11.9,11.9,0,0,0-2.6.5,2.9,2.9,0,0,0-1.5.9,3.2,3.2,0,0,0-1,1.8c-.1.7-1.2,4.9,1.5,7.4a6,6,0,0,0,4.2,1.5A6.6,6.6,0,0,0,243.2,474.6Z" transform="translate(0 0.5)"/><path class="cls-3" d="M248.5,498.5a1.8,1.8,0,0,0,.9-.7.8.8,0,0,0,0-.7,14.6,14.6,0,0,1-.3-2l-.9-3-1.2-3.5a14.5,14.5,0,0,1-.6-1.9,12,12,0,0,0-.7-1.8c-.7-1.7-1-1.9-1.3-2.1a5.9,5.9,0,0,0-2.6-.9,7.9,7.9,0,0,0-3.4.4,2.2,2.2,0,0,0-1.3,1.8,21.8,21.8,0,0,0-.7,3.8c-.4,4.3-.2,7.3-.3,8.2a2.4,2.4,0,0,0-.1.7c0,.9,0,1.3.3,1.6s1.9.7,3.4.9C243.6,499.7,247.3,499.2,248.5,498.5Z" transform="translate(0 0.5)"/><path class="cls-3" d="M142.2,488.5a1.6,1.6,0,0,0-.7.5c-.1.2-.1.3,0,.4s.1.8.2,1.4l.5,2.1.9,2.4c0,.3.3.8.4,1.3a2.7,2.7,0,0,0,.4,1.2c.5,1.2.7,1.3.9,1.5a4,4,0,0,0,1.9.7,6.4,6.4,0,0,0,2.6-.2,1.4,1.4,0,0,0,1-1.2,11.5,11.5,0,0,0,.6-2.5,51,51,0,0,0,.5-5.6,1.2,1.2,0,0,0,.1-.5,2.8,2.8,0,0,0-.1-1.1,6.3,6.3,0,0,0-2.6-.7A15.7,15.7,0,0,0,142.2,488.5Z" transform="translate(0 0.5)"/><path class="cls-3" d="M175.9,417.6a3.7,3.7,0,0,0,2.6-3.2c.9-3.1,1-3,1.1-3.9a4.6,4.6,0,0,0-.4-2.8,4,4,0,0,0-1.7-1.6,7.3,7.3,0,0,0-2.8-.5,12.9,12.9,0,0,0-2.6-.1,5.5,5.5,0,0,0-1.7.5,5,5,0,0,0-1.3,1.6c-.3.6-2.3,4.4-.3,7.5a7,7,0,0,0,3.8,2.5A8.8,8.8,0,0,0,175.9,417.6Z" transform="translate(0 0.5)"/><path class="cls-3" d="M173.2,467.9a4.6,4.6,0,0,0,1.4-1.5,3,3,0,0,0,.4-1.6c.1-1.2.3-2.8.6-5.1l.6-7.8.4-9a47.1,47.1,0,0,1,.3-4.8c.1-1.2.1-2.4.1-4.7.1-4.4-.1-5-.3-5.6a6.3,6.3,0,0,0-2.6-3.1,4.5,4.5,0,0,0-4.1-.3c-1.2.7-1.8,2.3-2.4,4.2s-1.7,5-2.7,9c-2.7,10.5-4.1,18-4.6,20.1l-.5,1.8c-.4,2.1-.7,3.2-.5,4s1.8,2.4,3.4,3.3C167,469.2,171.5,469.1,173.2,467.9Z" transform="translate(0 0.5)"/><path class="cls-3" d="M203.1,440.6a1.7,1.7,0,0,0,.6-.6,3.4,3.4,0,0,0,.1-1.1c-.1-1.3,0-1.3-.2-1.6a1.2,1.2,0,0,0-.7-1,1.8,1.8,0,0,0-1.1-.3l-1.5.3a4.8,4.8,0,0,0-1.3.5,1.2,1.2,0,0,0-.7.5c-.1,0-.3.3-.4.8s-.3,2.1,1.2,2.8a4.2,4.2,0,0,0,2.3.3A4.1,4.1,0,0,0,203.1,440.6Z" transform="translate(0 0.5)"/><path class="cls-3" d="M210.7,459.9a1.2,1.2,0,0,0,.4-.8.8.8,0,0,0-.1-.7c-.1-.4-.3-1.1-.5-2l-1.2-3-1.4-3.5c-.1-.5-.5-1-.7-1.8a11.2,11.2,0,0,0-.8-1.8c-.7-1.6-.9-1.9-1.1-2a3.1,3.1,0,0,0-1.9-.7,2.8,2.8,0,0,0-2,.6,2.6,2.6,0,0,0-.5,2,34.4,34.4,0,0,0,.3,3.9c.5,4.4,1.2,7.5,1.3,8.3a3.7,3.7,0,0,0,.1.8,3.5,3.5,0,0,0,.4,1.6,3.2,3.2,0,0,0,2.3.6C207.9,461.5,210.1,460.7,210.7,459.9Z" transform="translate(0 0.5)"/><path class="cls-3" d="M110.4,456.7l.7-.4c.3-.3.3-.5.4-1a10.2,10.2,0,0,0,.4-1.6,2.8,2.8,0,0,0-.4-1.2,2.9,2.9,0,0,0-1-.5l-1.5-.2h-1.4l-.9.3c-.1,0-.3.2-.6.7a2.7,2.7,0,0,0,.4,3.1,3.7,3.7,0,0,0,2.2.8A4.1,4.1,0,0,0,110.4,456.7Z" transform="translate(0 0.5)"/><path class="cls-3" d="M112.4,477.4a1.9,1.9,0,0,0,.7-.7,2,2,0,0,0,.1-.7,6.5,6.5,0,0,1,0-2l-.3-3.3-.4-3.7c0-.5-.2-1.1-.2-1.9s-.1-1-.2-2-.4-2-.6-2.2a2.8,2.8,0,0,0-1.5-1.2,3.1,3.1,0,0,0-2.2,0,2.7,2.7,0,0,0-1,1.8c-.2,1-.6,2.2-.8,3.8-.7,4.4-.9,7.6-1.1,8.4a4.5,4.5,0,0,1-.1.8,4,4,0,0,0,0,1.6c.3.7,1.1,1,2,1.3C109.3,478.2,111.6,477.9,112.4,477.4Z" transform="translate(0 0.5)"/><path class="cls-3" d="M72.3,480.8a4.8,4.8,0,0,0,2-1.2c.8-.7.9-1.5,1.4-3.1,1-3.9,1.3-3.8,1.3-5a6.4,6.4,0,0,0-.8-3.7,6.5,6.5,0,0,0-2.7-2,14.3,14.3,0,0,0-4-.5,29.1,29.1,0,0,0-3.9-.1,6.2,6.2,0,0,0-2.4.8,4.4,4.4,0,0,0-1.8,2c-.5.9-3,5.9.2,9.8a9.9,9.9,0,0,0,5.8,3.1A12.6,12.6,0,0,0,72.3,480.8Z" transform="translate(0 0.5)"/><path class="cls-3" d="M79.5,499.5h1.6c.3-.1.2-.2.2-.3s-.2.7-.2.3l-1.2-2.7L78.2,495c0-.3-.6-.6-.7-1a7,7,0,0,0-.9-.9,5.7,5.7,0,0,0-1.9-1.2,34.9,34.9,0,0,0-4.5-1.1c-.3,0-3.6-.6-5.9-.7s-2,.1-2.4.4a4.4,4.4,0,0,0-1.7,1.4,10.9,10.9,0,0,0-1.8,3.3.4.4,0,0,0-.2.3c-.1,4-.5,3.8-.1,4A52.5,52.5,0,0,0,64,501C70.7,502.2,77.3,499.4,79.5,499.5Z" transform="translate(0 0.5)"/><path class="cls-3" d="M114.9,368.5a3.6,3.6,0,0,0,1.3-1.2,4.4,4.4,0,0,0,.4-2.5c.2-3.2.4-3.1.3-4a4.9,4.9,0,0,0-1.1-2.7,3.7,3.7,0,0,0-2-1.1,6.8,6.8,0,0,0-2.8.1,11.8,11.8,0,0,0-2.5.5,8.3,8.3,0,0,0-1.6.9,5.4,5.4,0,0,0-.9,1.8c-.2.7-1.2,4.9,1.4,7.4a6.6,6.6,0,0,0,4.3,1.6A7,7,0,0,0,114.9,368.5Z" transform="translate(0 0.5)"/><path class="cls-3" d="M123.8,418.1a3.9,3.9,0,0,0,1-1.8,2.8,2.8,0,0,0,0-1.6,41.3,41.3,0,0,1-.5-5.1l-1.3-7.8-1.7-8.8c-.1-1.3-.6-2.8-.8-4.7a39,39,0,0,0-.9-4.6c-1-4.3-1.3-4.9-1.6-5.4a6.2,6.2,0,0,0-3.2-2.5c-.3,0-2.5-.6-4.1.7s-1.2,2.7-1.3,4.7a89.9,89.9,0,0,0-.6,9.3c-.3,10.8.1,18.5,0,20.7V413c.1,2.2.1,3.3.4,4s2.4,2,4.1,2.5C118,420.8,122.4,419.6,123.8,418.1Z" transform="translate(0 0.5)"/><path class="cls-3" d="M54.9,405.1a1.7,1.7,0,0,0-.8.7c-.3.3-.3.7-.4,1.4s-.3,1.7-.3,2.2a3.2,3.2,0,0,0,.6,1.5,3.3,3.3,0,0,0,1.3.7h1.9a4.5,4.5,0,0,0,1.6-.3l1.1-.4a2.4,2.4,0,0,0,.6-1,3.9,3.9,0,0,0-.7-4.2,4.9,4.9,0,0,0-2.8-.9A5.5,5.5,0,0,0,54.9,405.1Z" transform="translate(0 0.5)"/><path class="cls-3" d="M50.4,377.3a3.3,3.3,0,0,0-.7,1,3.4,3.4,0,0,0-.1.9c.1.7.2,1.6.3,2.8l.6,4.4.8,4.9c.1.8.4,1.6.5,2.7a21,21,0,0,0,.4,2.6c.6,2.4.7,2.7,1,3a3,3,0,0,0,2,1.4,3,3,0,0,0,2.7-.3c.7-.5.8-1.4,1-2.5s.5-2.9.6-5.2c.4-6,.4-10.3.5-11.5v-1a5,5,0,0,0-.1-2.3c-.4-.8-1.5-1.1-2.6-1.4C54.2,375.9,51.4,376.5,50.4,377.3Z" transform="translate(0 0.5)"/><path class="cls-3" d="M76.3,292.3a3.5,3.5,0,0,0,1.5-.9,4.9,4.9,0,0,0,1.1-2.3c.9-3.1,1-3,1.1-3.9a4.6,4.6,0,0,0-.4-2.8,4,4,0,0,0-1.7-1.6,7.1,7.1,0,0,0-2.7-.5,14,14,0,0,0-2.7-.1,5.5,5.5,0,0,0-1.7.5,10.8,10.8,0,0,0-1.3,1.6c-.3.6-2.3,4.5-.3,7.5a7,7,0,0,0,3.8,2.5A8.8,8.8,0,0,0,76.3,292.3Z" transform="translate(0 0.5)"/><path class="cls-3" d="M73.6,342.6a3.7,3.7,0,0,0,1.4-1.5,3,3,0,0,0,.4-1.6c.1-1.2.3-2.8.6-5.1l.6-7.8.4-9a47.1,47.1,0,0,1,.3-4.8c.1-1.2.1-2.3.1-4.7.1-4.4-.1-5-.3-5.6a6.3,6.3,0,0,0-2.6-3.1c-.2-.1-2.3-1.2-4.1-.2s-1.8,2.2-2.4,4.1-1.7,5-2.7,9c-2.7,10.5-4,18.1-4.6,20.1l-.5,1.8c-.4,2.1-.7,3.2-.5,4s1.8,2.5,3.4,3.3C67.4,343.9,71.9,343.8,73.6,342.6Z" transform="translate(0 0.5)"/><path class="cls-3" d="M132.9,309.7a1.2,1.2,0,0,0,.6-.6c.2-.3.2-.5.1-1a15.4,15.4,0,0,0-.1-1.7,2.3,2.3,0,0,0-.7-1,3,3,0,0,0-1.2-.3,3.8,3.8,0,0,0-1.4.4l-1.3.4-.8.5c0,.1-.3.3-.3.8a2.5,2.5,0,0,0,1.2,2.9,3.2,3.2,0,0,0,2.3.2A3.5,3.5,0,0,0,132.9,309.7Z" transform="translate(0 0.5)"/><path class="cls-3" d="M140.6,329.1a3.7,3.7,0,0,0,.4-.9c0-.3,0-.5-.1-.6a12.4,12.4,0,0,1-.6-2l-1.1-3.1-1.4-3.4a13.1,13.1,0,0,1-.7-1.9l-.8-1.7a6.7,6.7,0,0,0-1.2-2.1,2.5,2.5,0,0,0-1.8-.7,3.3,3.3,0,0,0-2.1.7c-.5.4-.5,1.2-.4,2a29.1,29.1,0,0,0,.2,3.8c.6,4.4,1.2,7.5,1.3,8.4a2.4,2.4,0,0,1,.1.7,4.1,4.1,0,0,0,.5,1.6c.4.6,1.3.6,2.3.7A8.3,8.3,0,0,0,140.6,329.1Z" transform="translate(0 0.5)"/><path class="cls-3" d="M16.7,327.9a1.8,1.8,0,0,0,.5-.7,2.2,2.2,0,0,0-.1-1.1c-.4-1.3-.3-1.3-.5-1.6s-.4-.7-.8-.8a2.7,2.7,0,0,0-1.2-.1l-1.4.6-1.2.7c-.2.2-.5.3-.6.6a1.4,1.4,0,0,0-.2.9,2.6,2.6,0,0,0,1.7,2.6,3.8,3.8,0,0,0,2.3-.2A5.7,5.7,0,0,0,16.7,327.9Z" transform="translate(0 0.5)"/><path class="cls-3" d="M27.9,345.4a1.3,1.3,0,0,0,.2-.9.8.8,0,0,0-.2-.6L27,342l-1.7-2.8-2.1-3.1-1-1.6a5.7,5.7,0,0,0-1.1-1.6c-1-1.5-1.3-1.7-1.5-1.8a3.1,3.1,0,0,0-2-.4,4.3,4.3,0,0,0-1.9,1.1c-.4.5-.2,1.2,0,2a27.6,27.6,0,0,0,.9,3.7c1.4,4.3,2.7,7.2,2.9,8l.2.7c.4.9.5,1.3.8,1.5s1.4.3,2.4.2C25.4,347.5,27.4,346.3,27.9,345.4Z" transform="translate(0 0.5)"/><path class="cls-3" d="M205.7,298a4.2,4.2,0,0,0,2.1-1.2c.8-.7.9-1.4,1.3-3,1.1-4,1.3-3.9,1.4-5.1a5.4,5.4,0,0,0-.9-3.6,5.1,5.1,0,0,0-2.6-2,11.3,11.3,0,0,0-4.1-.6,13.9,13.9,0,0,0-3.8,0,5.5,5.5,0,0,0-2.5.7,5,5,0,0,0-1.7,2.1c-.5.8-3,5.8.2,9.7a9.2,9.2,0,0,0,5.7,3.1A9.5,9.5,0,0,0,205.7,298Z" transform="translate(0 0.5)"/><path class="cls-3" d="M206.2,363.5a5.5,5.5,0,0,0,1.9-2,4.9,4.9,0,0,0,.4-2.1c0-1.5.2-3.6.5-6.6V342.6l-.2-11.7c.1-1.6-.2-3.7,0-6.2a47.9,47.9,0,0,0-.2-6.1c-.3-5.7-.6-6.6-1-7.3a8.8,8.8,0,0,0-4-4c-.4-.1-3.5-1.4-6-.1s-2.5,3-3.2,5.5-2.1,6.5-3.2,11.7c-3,13.7-4.4,23.6-5,26.3l-.5,2.4c-.5,2.7-.7,4.1-.4,5.2s2.9,3.1,5.3,4.2C197.1,365.5,203.7,365.1,206.2,363.5Z" transform="translate(0 0.5)"/><path class="cls-3" d="M254.4,287a2.6,2.6,0,0,0-1.3.9c-.4.5-.4,1-.6,2-.3,2.5-.4,2.4-.3,3.2a3.2,3.2,0,0,0,.9,2.1,4.1,4.1,0,0,0,2,1,14.7,14.7,0,0,0,2.8-.1l2.5-.3a4.6,4.6,0,0,0,1.6-.7,2.4,2.4,0,0,0,1-1.4c.2-.5,1.4-3.8-1.1-5.9a7.4,7.4,0,0,0-4.2-1.3A6.9,6.9,0,0,0,254.4,287Z" transform="translate(0 0.5)"/><path class="cls-3" d="M247.5,247.3a4.4,4.4,0,0,0-1.1,1.4,1.8,1.8,0,0,0,0,1.3c.1,1,.2,2.2.3,4.1l.9,6.2,1.4,7c0,1,.4,2.3.6,3.8a35.8,35.8,0,0,0,.7,3.7c.8,3.4,1.1,3.9,1.5,4.3a4.9,4.9,0,0,0,3.1,2,5.4,5.4,0,0,0,4-.4c1.1-.7,1.4-2,1.6-3.6a71.1,71.1,0,0,0,.9-7.4c.7-8.6.6-14.7.8-16.4a10.1,10.1,0,0,0,.1-1.5c0-1.7.1-2.6-.2-3.2s-2.3-1.6-4-2.1C253.4,245.3,249,246.1,247.5,247.3Z" transform="translate(0 0.5)"/><path class="cls-3" d="M302.5,416.5l.8-.2a1.6,1.6,0,0,0,.6-.9c.6-1.2.7-1.1.8-1.5a2.6,2.6,0,0,0-.1-1.2,3,3,0,0,0-.9-.8,3.4,3.4,0,0,0-1.4-.5l-1.3-.3h-.9a1.5,1.5,0,0,0-.8.5,2.5,2.5,0,0,0-.4,3,3.9,3.9,0,0,0,1.9,1.4A4.9,4.9,0,0,0,302.5,416.5Z" transform="translate(0 0.5)"/><path class="cls-3" d="M299.1,437a1.6,1.6,0,0,0,.8-.5,1.5,1.5,0,0,0,.3-.6,14.3,14.3,0,0,1,.5-2l.6-3.2.6-3.7c.1-.5.1-1.2.3-2s.1-.9.3-1.9.1-2.1,0-2.3a3.4,3.4,0,0,0-1.2-1.6,3.9,3.9,0,0,0-2.1-.5,2.3,2.3,0,0,0-1.4,1.5,25.4,25.4,0,0,0-1.8,3.4c-1.8,4.1-2.8,7.1-3.2,7.9l-.3.7c-.3.8-.5,1.2-.4,1.6s.8,1.2,1.6,1.7S298.2,437.3,299.1,437Z" transform="translate(0 0.5)"/><path class="cls-3" d="M22.7,459.3a3.8,3.8,0,0,0-1.3,1c-.5.5-.5.9-.6,1.9-.3,2.5-.5,2.5-.4,3.2a3.5,3.5,0,0,0,.9,2.2,5.3,5.3,0,0,0,2,.9,8.4,8.4,0,0,0,2.8,0l2.6-.3,1.6-.7a3.9,3.9,0,0,0,1-1.4c.2-.6,1.4-3.9-1.2-5.9a6.8,6.8,0,0,0-4.2-1.4A10.6,10.6,0,0,0,22.7,459.3Z" transform="translate(0 0.5)"/><path class="cls-3" d="M15.8,419.7a3.5,3.5,0,0,0-1.1,1.4,3.2,3.2,0,0,0-.1,1.3,19.6,19.6,0,0,1,.3,4l1,6.2,1.3,7.1c.1,1,.5,2.2.7,3.8a35.2,35.2,0,0,0,.7,3.6c.8,3.5,1.1,4,1.4,4.4a5.3,5.3,0,0,0,3.1,2,5.7,5.7,0,0,0,4.1-.4c1.1-.7,1.3-2.1,1.6-3.7s.7-4.1.9-7.3c.7-8.6.6-14.8.8-16.5v-1.4c.1-1.8.1-2.6-.2-3.2s-2.2-1.7-4-2.1C21.7,417.7,17.3,418.5,15.8,419.7Z" transform="translate(0 0.5)"/><path class="cls-3" d="M453,394.1a5.1,5.1,0,0,0-1.3.9,4.7,4.7,0,0,0-.6,2c-.3,2.5-.4,2.5-.3,3.2a3,3,0,0,0,.9,2.1,4.1,4.1,0,0,0,2,1,8.3,8.3,0,0,0,2.8,0,9,9,0,0,0,2.5-.4,4.4,4.4,0,0,0,1.6-.6,2.4,2.4,0,0,0,1-1.4c.2-.6,1.4-3.9-1.1-5.9a6.9,6.9,0,0,0-4.2-1.4A10.8,10.8,0,0,0,453,394.1Z" transform="translate(0 0.5)"/><path class="cls-3" d="M446.1,354.5a3.5,3.5,0,0,0-1.1,1.4,1.8,1.8,0,0,0,0,1.3c.1.9.2,2.2.3,4l.9,6.2,1.4,7.1c0,1,.4,2.2.6,3.8a35.2,35.2,0,0,0,.7,3.6c.8,3.5,1.1,4,1.5,4.4a4.9,4.9,0,0,0,3.1,2,5.4,5.4,0,0,0,4-.4c1.1-.7,1.4-2.1,1.6-3.7a65.4,65.4,0,0,0,.9-7.3c.7-8.6.6-14.8.8-16.5a9.4,9.4,0,0,0,.1-1.4c0-1.8.1-2.6-.2-3.2s-2.3-1.7-4-2.1C452,352.5,447.6,353.3,446.1,354.5Z" transform="translate(0 0.5)"/><path class="cls-3" d="M490.4,294a2.1,2.1,0,0,0-.8.6,2.6,2.6,0,0,0-.4,1.4c-.2,1.8-.3,1.7-.2,2.2a1.7,1.7,0,0,0,.6,1.5,1.9,1.9,0,0,0,1.3.7,5.1,5.1,0,0,0,1.8,0l1.7-.2,1-.5a2.4,2.4,0,0,0,.6-1c.2-.4,1-2.7-.7-4.1a4.3,4.3,0,0,0-2.7-1A5.4,5.4,0,0,0,490.4,294Z" transform="translate(0 0.5)"/><path class="cls-3" d="M485.9,266.1a3.3,3.3,0,0,0-.7,1,1.7,1.7,0,0,0,0,1c.1.6.1,1.5.2,2.8l.6,4.3.9,5c0,.7.3,1.6.4,2.6s.2,1.3.5,2.6.7,2.8.9,3.1a4.2,4.2,0,0,0,2,1.4,4,4,0,0,0,2.7-.3,3.5,3.5,0,0,0,1-2.6,42.3,42.3,0,0,0,.6-5.1c.5-6.1.4-10.4.5-11.6a6.7,6.7,0,0,1,.1-1,5.6,5.6,0,0,0-.2-2.2c-.4-.9-1.5-1.2-2.6-1.5C489.8,264.7,486.9,265.3,485.9,266.1Z" transform="translate(0 0.5)"/><path class="cls-3" d="M457.3,308.3c.2-.1.6-.1.8-.3a1.6,1.6,0,0,0,.6-.9,8.8,8.8,0,0,0,.6-1.6,1.9,1.9,0,0,0-.2-1.2,2.4,2.4,0,0,0-.9-.7,6.2,6.2,0,0,0-1.4-.4h-2.3a1.1,1.1,0,0,0-.7.5c-.2.3-1.2,1.8-.2,3.1a3.7,3.7,0,0,0,2,1.3A6.2,6.2,0,0,0,457.3,308.3Z" transform="translate(0 0.5)"/><path class="cls-3" d="M455.7,329a1.4,1.4,0,0,0,.7-.6.8.8,0,0,0,.2-.6l.4-2.1.3-3.2.3-3.7a15.6,15.6,0,0,1,.1-2,8.7,8.7,0,0,0,.1-1.9,5.8,5.8,0,0,0-.1-2.4,4.3,4.3,0,0,0-1.4-1.4,2.9,2.9,0,0,0-2.1-.3c-.7.2-1,.8-1.3,1.6a36,36,0,0,0-1.4,3.5c-1.5,4.2-2.3,7.3-2.6,8.1l-.2.8a2.7,2.7,0,0,0-.3,1.6c.1.7.9,1.1,1.8,1.6S454.8,329.4,455.7,329Z" transform="translate(0 0.5)"/><path class="cls-3" d="M218.7,24.3a4.1,4.1,0,0,0-1.4,1,5,5,0,0,0-.7,2.5c-.5,3.1-.7,3-.7,4a4.7,4.7,0,0,0,.8,2.7,4.1,4.1,0,0,0,1.9,1.4,7.1,7.1,0,0,0,2.7.1,9.3,9.3,0,0,0,2.6-.2,3.4,3.4,0,0,0,1.7-.8,4.3,4.3,0,0,0,1.1-1.6c.2-.7,1.7-4.8-.7-7.5a5.6,5.6,0,0,0-4-2A6,6,0,0,0,218.7,24.3Z" transform="translate(0 0.5)"/><path class="cls-3" d="M215.9,0a2,2,0,0,0-1,.6.9.9,0,0,0-.1.7,10.4,10.4,0,0,1,.1,2l.6,3.1.9,3.6c0,.5.3,1.2.4,1.9a5.8,5.8,0,0,0,.4,1.9c.6,1.8.8,2,1.1,2.2a4.6,4.6,0,0,0,2.5,1.2,7.4,7.4,0,0,0,3.4,0c1-.3,1.2-.9,1.5-1.7a16.2,16.2,0,0,0,1-3.6c.9-4.3,1.1-7.3,1.3-8.2a3.2,3.2,0,0,1,.1-.7c.1-.9.2-1.3-.1-1.6S226.2.5,224.7.1C220.9-.7,217.1-.5,215.9,0Z" transform="translate(0 0.5)"/><path class="cls-3" d="M389.4,17.9a3.4,3.4,0,0,0-1.7,1c-.6.5-.7,1.1-1,2.3-.7,3.1-.9,3-.9,3.9a4.3,4.3,0,0,0,.8,2.8,5.9,5.9,0,0,0,2.3,1.5,12.4,12.4,0,0,0,3.4.3,28.7,28.7,0,0,0,3.2,0,4.3,4.3,0,0,0,2-.6,3.8,3.8,0,0,0,1.4-1.6c.4-.7,2.3-4.6-.5-7.5a8.6,8.6,0,0,0-4.9-2.3A10,10,0,0,0,389.4,17.9Z" transform="translate(0 0.5)"/><path class="cls-3" d="M382.7,3.7h-1.3c-.3.1-.2.2-.2.2s.1-.5.2-.2l1.1,2.1,1.4,1.3c.1.1.6.4.7.7l.8.7,1.6.9,3.7.7,5,.5c1.4,0,1.7-.2,2-.4s1.1-.6,1.4-1.1,1.1-2.3,1.4-2.5a.4.4,0,0,0,.1-.3c0-3,.3-2.9,0-3a27.9,27.9,0,0,0-5-1.1C390,1.5,384.6,3.8,382.7,3.7Z" transform="translate(0 0.5)"/><path class="cls-3" d="M116.4,26.8a4,4,0,0,0-1.3,1.1c-.5.6-.5,1.2-.7,2.4-.6,3.1-.7,3.1-.7,4a5.2,5.2,0,0,0,.7,2.7,4,4,0,0,0,2,1.4,8.7,8.7,0,0,0,2.7.2l2.6-.3a5.1,5.1,0,0,0,1.7-.7,5.2,5.2,0,0,0,1.1-1.7c.2-.7,1.7-4.7-.7-7.5a6.3,6.3,0,0,0-4-2A7.8,7.8,0,0,0,116.4,26.8Z" transform="translate(0 0.5)"/><path class="cls-3" d="M113.7,2.5a2.1,2.1,0,0,0-1,.6c-.2.3-.2.6-.1.7a10.9,10.9,0,0,1,.1,2l.6,3.2.8,3.5a8.8,8.8,0,0,1,.4,2c.1.4.2.9.5,1.8a5.3,5.3,0,0,0,1,2.3,7.4,7.4,0,0,0,2.6,1.1,6.1,6.1,0,0,0,3.4,0,2.3,2.3,0,0,0,1.5-1.7,24.4,24.4,0,0,0,1-3.6c.9-4.3,1-7.3,1.2-8.2l.2-.7a2.5,2.5,0,0,0-.1-1.6c-.4-.6-1.8-.9-3.3-1.2C118.7,1.8,114.9,2,113.7,2.5Z" transform="translate(0 0.5)"/><path class="cls-3" d="M160.9,363.8l.8-.3c.3-.2.3-.4.5-.9s.6-1.1.6-1.5a1.7,1.7,0,0,0-.1-1.2,2.1,2.1,0,0,0-.9-.7,3.4,3.4,0,0,0-1.5-.4l-1.3-.2h-1c0,.1-.4.2-.6.6a2.5,2.5,0,0,0-.2,3.1,3.8,3.8,0,0,0,1.9,1.2A3.1,3.1,0,0,0,160.9,363.8Z" transform="translate(0 0.5)"/><path class="cls-3" d="M159.2,384.5a1.6,1.6,0,0,0,.7-.5,1.1,1.1,0,0,0,.2-.7l.4-2,.3-3.2.3-3.7a16.8,16.8,0,0,1,.2-2,14.9,14.9,0,0,1,.1-1.9,6.4,6.4,0,0,0-.2-2.4,2.7,2.7,0,0,0-1.3-1.4,2.9,2.9,0,0,0-2.2-.4c-.6.2-.9.9-1.3,1.6s-.9,2-1.4,3.6c-1.5,4.2-2.3,7.3-2.6,8.1l-.2.7c-.3.9-.4,1.3-.3,1.6s.9,1.1,1.8,1.6S158.3,384.9,159.2,384.5Z" transform="translate(0 0.5)"/></g><text class="cls-4" transform="translate(91.7 143.2) scale(1.1 1)">A<tspan class="cls-5" x="69.7" y="0">VISO</tspan></text><text class="cls-6" transform="translate(81.7 143.6) scale(1.1 1)">A<tspan class="cls-5" x="69.7" y="0">VISO</tspan></text><path class="cls-7" d="M315.3,306.5s14.1-43-5.5-71.9c0,0-45.4-63.1-102.2-5,0,0-29.2,30.7-9.1,77.8,0,0-17.6,24.1-13.7,45.6,0,0,23.2-29.6,41,1.3,0,0,1.5,11.4-.9,16.7,0,0,38.6,10.1,62.1,0,0,0-6.4-23.3,8.2-27.6,0,0,18.3-10,34.7,8.8C329.9,352.2,323.7,316.8,315.3,306.5Z" transform="translate(0 0.5)"/><path class="cls-8" d="M209.3,340.5s-38.1,3.3-16.8,36.4c0,0,20.1,15.2,35-6.9C227.5,370,228.5,341.1,209.3,340.5Z" transform="translate(0 0.5)"/><path class="cls-8" d="M309.4,340.5s-38.1,3.3-16.8,36.4c0,0,33.6,15.1,37.3-19.8C329.9,357.1,328.5,341.1,309.4,340.5Z" transform="translate(0 0.5)"/><path class="cls-8" d="M227.7,371.7s46.5,7,63.3,1.1.9-1.5.9-1.5,9.1,10.5,14.8,10c0,0-23.5,51-27.4,57.2,0,0,14.4,4.6,15.3,12.9,0,0-2.1,20.8-38.7,12.8,0,0-17.3.8-2.7-48.9l-3.5-3.9-10-.9-22.4,50.1s-12.8,18.2-25.6,4.5c0,0-24.4-23.6-13-42.3,0,0,11.8-9.7,18.2-3.7l6.3-39S220.9,382.3,227.7,371.7Z" transform="translate(0 0.5)"/><path class="cls-8" d="M220.2,216.6l-20.1,25.7L193,227.9l5.5-11.3S217.2,213.6,220.2,216.6Z" transform="translate(0 0.5)"/><path class="cls-8" d="M292.4,215.9s23.4,22.2,24.6,26.2l1.4-18-11.7-12.7Z" transform="translate(0 0.5)"/><path class="cls-9" d="M185.5,339.5s15.6-27.4,22.1-26.6c0,0,5.3-.8,20.8,8.9l-12.3-14.5s-15.5,1.7-17.3,0C198.8,307.3,184.4,332.5,185.5,339.5Z" transform="translate(0 0.5)"/><path class="cls-10" d="M323.6,325.7s-10.9-12.8-16.9-13.1c0,0-2-3.1-23.3,13.1l15.8-18.4s11.1,1.4,14.8,0Z" transform="translate(0 0.5)"/><polygon class="cls-11" points="226 316.9 226 354.3 229.1 363.6 239.9 367.4 226 316.9"/><polygon class="cls-11" points="288 318.6 286.5 351.9 282.8 365.4 274.9 366.4 288 318.6"/><path class="cls-12" d="M184.5,341.7s18.2-20.7,41.4-3.4v11.6l-16.6-10.4-15.2,6.1-6.6,6.5-3,1.4Z" transform="translate(0 0.5)"/><path class="cls-12" d="M288,337v11.9l11.5-8.1,17.4.9,13.3,6.2-2.2-8.4s-18.5-16.4-40-2.5" transform="translate(0 0.5)"/><path class="cls-12" d="M229.1,363.1s11.9,10.5,57.5,1.6v6.4l-26.2,5.1-26.7-3-7.7-1.4Z" transform="translate(0 0.5)"/><polygon class="cls-13" points="292.2 372.2 199.5 397.8 203.2 381.7 217.2 380.9 226 372.2 244.5 375 263.4 376.1 277.7 374 292.2 372.2"/><polygon class="cls-13" points="297 405.6 250.6 430.8 252.9 413.8 263.4 412 292.2 400.4 298.5 392.4 297 405.6"/><path class="cls-14" d="M178.3,444.8s.2-17.6,10.8-15.6a10.6,10.6,0,0,1,4.9,2.6,37.4,37.4,0,0,1,10.5,18.1,11.4,11.4,0,0,1-2.9,10.7c-2.3,2.4-6.1,4.1-12.1,2.7Z" transform="translate(0 0.5)"/><path class="cls-15" d="M222.5,217.4s.6,20.5-24,29.2l8.4-17Z" transform="translate(0 0.5)"/><path class="cls-15" d="M289.2,214.7s-2.7,20.1,27.2,33.4l-13.7-23.7Z" transform="translate(0 0.5)"/><ellipse class="cls-16" cx="258" cy="276.2" rx="48.7" ry="53.9"/><path class="cls-17" d="M212.6,292.1s38.3,36.3,89.6,2c0,0-6.4,23.2-25.5,32.9l-1.4.6h-.1a49.1,49.1,0,0,1-55.5-19.4C216.4,303.3,213.6,297.8,212.6,292.1Z" transform="translate(0 0.5)"/><path class="cls-18" d="M281.8,282.7s-27.2-14.5-48.7,0a47.6,47.6,0,0,0-.4,16.4,22.4,22.4,0,0,0,17.1,17.8,42.5,42.5,0,0,0,15.2.9,19.2,19.2,0,0,0,14.6-11.2C282,301.3,284,293.2,281.8,282.7Z" transform="translate(0 0.5)"/><path class="cls-19" d="M251.1,283.3a16.4,16.4,0,0,1,13.5.4s2.5,3.9-1.9,6.7a11.5,11.5,0,0,1-7.9,1.1,6.3,6.3,0,0,1-5.1-5.8A2.2,2.2,0,0,1,251.1,283.3Z" transform="translate(0 0.5)"/><ellipse class="cls-19" cx="237.7" cy="270.8" rx="7.5" ry="7.3"/><ellipse class="cls-20" cx="241.2" cy="268.3" rx="1.3" ry="1.3"/><ellipse class="cls-19" cx="275.9" cy="271.3" rx="7.5" ry="7.3"/><ellipse class="cls-20" cx="279.4" cy="268.7" rx="1.3" ry="1.3"/><path class="cls-19" d="M228.7,237.7l-.6,7.6s32.3-13.1,57.2,0l-1.9-8.6S255.7,224.5,228.7,237.7Z" transform="translate(0 0.5)"/><path class="cls-21" d="M330.5,349.5c-6.9-5.2-13-8-18.1-9.2-14.7-3.6-28.4,8.8-25.2,23.2a21.1,21.1,0,0,0,5.7,10.4c9.9,10.1,27.1,8.3,33.7-4.1,11.6-21.8-11.3-63.3-11.3-63.3,24.3-103.3-60.7-100.8-60.7-100.8-84.7,12.6-56.1,101.7-56.1,101.7a60.2,60.2,0,0,0-10.8,58.5,22.9,22.9,0,0,0,28,14.4c6-1.8,11.2-6.1,12.2-15.5a13.7,13.7,0,0,0,0-3.5c-.6-4.6-3.1-16-13.2-20a17.9,17.9,0,0,0-11.2-.6c-5.1,1.2-13.7,6.9-18.3,14.8" transform="translate(0 0.5)"/><path class="cls-21" d="M224.9,371s33.1,11.2,64.9-1" transform="translate(0 0.5)"/><line class="cls-21" x1="203.2" y1="380.9" x2="196.9" y2="419.8"/><path class="cls-21" d="M209.3,429.2s-18.5-21.4-30.1-6.9a18.9,18.9,0,0,0-3.3,16.7c2.3,8.1,7.5,21.2,18.2,27.7L196,468c3.9,2.9,22.9,12.1,43.7-57.5,0,0,40.6,11.9,67-29.2" transform="translate(0 0.5)"/><path class="cls-21" d="M253,411.3,247.7,452a11.4,11.4,0,0,0,5.9,11.5l.6.3a21.9,21.9,0,0,0,5.3,1.7c6.5,1.1,26.5,3.5,33.8-8.8a10,10,0,0,0-3.8-13.8,18.8,18.8,0,0,0-11.8-2.2s17.5-23.4,24.5-53.1" transform="translate(0 0.5)"/><path class="cls-21" d="M292.4,215.9s36.9-13.1,23.7,29.4" transform="translate(0 0.5)"/><path class="cls-21" d="M222.5,217.4s-37.1-16.7-24.1,29" transform="translate(0 0.5)"/><text class="cls-22" transform="translate(229.5 348.9) scale(0.99 1)">Osuna</text></svg>