<svg id="Capa_2" data-name="Capa 2" xmlns="http://www.w3.org/2000/svg" viewBox="0 0 500 501.9"><defs><style>.cls-1{fill:#71c1a9;}.cls-2{opacity:0.36;}.cls-3{fill:#0c4054;}.cls-10,.cls-12,.cls-14,.cls-21,.cls-22,.cls-4,.cls-5,.cls-8,.cls-9{isolation:isolate;}.cls-5{font-size:140.8px;font-family:HangingLetters, Hanging Letters;letter-spacing:0.03em;}.cls-19,.cls-5{fill:#fff;}.cls-6{fill:#998e91;}.cls-7{fill:#e2ae79;}.cls-10,.cls-14,.cls-8,.cls-9{fill:#635b5d;}.cls-8{opacity:0.76;}.cls-9{opacity:0.79;}.cls-10{opacity:0.57;}.cls-11{fill:#fdedf2;}.cls-12,.cls-13{fill:#8f7350;}.cls-12{opacity:0.78;}.cls-14{opacity:0.81;}.cls-15{fill:#d9b47e;stroke:#230e0f;stroke-width:8px;}.cls-15,.cls-16,.cls-17,.cls-20,.cls-22{stroke-miterlimit:10;}.cls-16{fill:#927b60;stroke:#210c0d;stroke-width:10px;}.cls-17{fill:#895a33;stroke:#210e0f;stroke-width:5px;}.cls-18{fill:#21120c;}.cls-20,.cls-22{fill:none;}.cls-20{stroke:#21120c;stroke-width:7px;}.cls-21,.cls-22{font-size:16.68px;font-family:Flood;}.cls-21{fill:#e30613;}.cls-22{stroke:#fff;stroke-width:0.4px;}</style></defs><title>avi1-i</title><rect class="cls-1" y="0.6" width="500" height="500"/><g class="cls-2"><path class="cls-3" d="M29.5,54a3.4,3.4,0,0,0-1.2,1.2,5.3,5.3,0,0,0-.5,2.5c-.2,3.2-.4,3.1-.2,4a4.5,4.5,0,0,0,1,2.7,3.6,3.6,0,0,0,2.1,1.1,6.2,6.2,0,0,0,2.7-.1,5.8,5.8,0,0,0,2.6-.6,2.9,2.9,0,0,0,1.5-.9,2.4,2.4,0,0,0,.9-1.8c.2-.7,1.2-4.8-1.4-7.3a5.8,5.8,0,0,0-4.2-1.6A7.6,7.6,0,0,0,29.5,54Z" transform="translate(0 0.1)"/><path class="cls-3" d="M20.6,4.4a4,4,0,0,0-1,1.8,2.2,2.2,0,0,0,0,1.6,44,44,0,0,1,.5,5.1l1.3,7.8,1.7,8.8c.1,1.3.6,2.8.8,4.7a33.5,33.5,0,0,0,.9,4.6c1,4.3,1.3,4.9,1.7,5.4a5.5,5.5,0,0,0,3.2,2.4,4.1,4.1,0,0,0,4-.7c1.1-.9,1.2-2.6,1.4-4.6a91.8,91.8,0,0,0,.5-9.3c.3-10.8-.1-18.5-.1-20.7a10.9,10.9,0,0,0,.1-1.8,18.4,18.4,0,0,0-.4-4.1C34.5,4,32.8,3.5,31.1,3,26.4,1.6,22,2.8,20.6,4.4Z" transform="translate(0 0.1)"/><path class="cls-3" d="M80.3,29.2a3.1,3.1,0,0,0,.9-.7,1.7,1.7,0,0,0,.3-1.4c.3-1.7.4-1.7.3-2.2a3.9,3.9,0,0,0-.6-1.5,3.3,3.3,0,0,0-1.3-.7H78.1l-1.7.3-1,.4a2.3,2.3,0,0,0-.7,1c-.1.4-.9,2.7.8,4.2a4.4,4.4,0,0,0,2.7.9A7.6,7.6,0,0,0,80.3,29.2Z" transform="translate(0 0.1)"/><path class="cls-3" d="M84.9,57a3.6,3.6,0,0,0,.7-1,1.4,1.4,0,0,0,0-.9c-.1-.7-.1-1.6-.2-2.8l-.6-4.4-.9-5c0-.7-.3-1.5-.4-2.6a14.7,14.7,0,0,0-.5-2.6,16.2,16.2,0,0,0-.9-3A3.6,3.6,0,0,0,80,33.2a3.4,3.4,0,0,0-2.6.4,3,3,0,0,0-1,2.5,46,46,0,0,0-.6,5.2c-.5,6-.4,10.3-.5,11.5a3.4,3.4,0,0,1-.1,1,5.8,5.8,0,0,0,.2,2.3c.4.8,1.5,1.1,2.6,1.4C81,58.4,83.9,57.8,84.9,57Z" transform="translate(0 0.1)"/><path class="cls-3" d="M67.7,147.2a3.8,3.8,0,0,0-1.5.9,5.2,5.2,0,0,0-1,2.3c-.9,3.1-1.1,3-1.2,3.9a5.3,5.3,0,0,0,.4,2.8,4,4,0,0,0,1.8,1.6,8.6,8.6,0,0,0,2.7.5,11.3,11.3,0,0,0,2.6.1,3.5,3.5,0,0,0,1.7-.6,3.7,3.7,0,0,0,1.3-1.5c.3-.7,2.3-4.5.3-7.5a5.9,5.9,0,0,0-3.8-2.5A6.2,6.2,0,0,0,67.7,147.2Z" transform="translate(0 0.1)"/><path class="cls-3" d="M70.4,96.9A4,4,0,0,0,69,98.4a2.9,2.9,0,0,0-.4,1.6c-.1,1.2-.3,2.8-.7,5l-.5,7.9-.4,9c-.1,1.2,0,2.8-.2,4.8a24.7,24.7,0,0,0-.2,4.7c-.1,4.3.1,5,.4,5.6a5.5,5.5,0,0,0,2.5,3.1c.3.1,2.3,1.2,4.1.2s1.8-2.3,2.4-4.2,1.8-5,2.7-8.9c2.7-10.5,4-18.1,4.6-20.2,0,0,.2-.7.4-1.8a13.4,13.4,0,0,0,.6-4c-.3-1.5-1.9-2.4-3.4-3.3C76.6,95.5,72.1,95.7,70.4,96.9Z" transform="translate(0 0.1)"/><path class="cls-3" d="M31.3,121l-.5.6a1.4,1.4,0,0,0-.1,1.1,9.7,9.7,0,0,0,.1,1.7,1.6,1.6,0,0,0,.7.9,2,2,0,0,0,1.1.3l1.5-.3,1.3-.4a1.3,1.3,0,0,0,.7-.6c.1,0,.3-.3.4-.8a2.5,2.5,0,0,0-1.2-2.8,4.5,4.5,0,0,0-2.3-.3Z" transform="translate(0 0.1)"/><path class="cls-3" d="M23.7,101.7a1.2,1.2,0,0,0-.4.8.9.9,0,0,0,0,.7,6.6,6.6,0,0,1,.6,2l1.2,3.1,1.4,3.4c.1.5.5,1.1.7,1.8l.8,1.8c.7,1.7.9,1.9,1.2,2a2.4,2.4,0,0,0,1.8.7,2.5,2.5,0,0,0,2-.6,2.9,2.9,0,0,0,.5-2,25.6,25.6,0,0,0-.3-3.9c-.5-4.4-1.2-7.5-1.3-8.3a2.2,2.2,0,0,0-.1-.8,2.9,2.9,0,0,0-.4-1.6,3.2,3.2,0,0,0-2.3-.6C26.5,100.1,24.3,101,23.7,101.7Z" transform="translate(0 0.1)"/><path class="cls-3" d="M127.5,108l-.7.5a1.5,1.5,0,0,0-.4.9c-.2,1.3-.3,1.3-.3,1.7a1.5,1.5,0,0,0,.4,1.1,2.1,2.1,0,0,0,1,.6h2.9l.9-.3.5-.6a2.6,2.6,0,0,0-.3-3.1,4.3,4.3,0,0,0-2.2-.9A5.5,5.5,0,0,0,127.5,108Z" transform="translate(0 0.1)"/><path class="cls-3" d="M125.5,87.4a.9.9,0,0,0-.6.6.9.9,0,0,0-.1.7v2.1L125,94l.5,3.7c0,.5.1,1.2.1,2a7.4,7.4,0,0,0,.3,1.9,8.8,8.8,0,0,0,.6,2.3,2.6,2.6,0,0,0,1.5,1.2,3.3,3.3,0,0,0,2.2-.1c.6-.3.8-1,1-1.8s.6-2.5.8-3.8c.7-4.4.9-7.5,1-8.4a1.7,1.7,0,0,0,.1-.7c.1-.9.2-1.4,0-1.7a4.9,4.9,0,0,0-2-1.2C130.2,87.1,126.3,86.8,125.5,87.4Z" transform="translate(0 0.1)"/><path class="cls-3" d="M165.7,79.2a4.5,4.5,0,0,0-2.1,1.2c-.8.7-.9,1.4-1.3,3-1.1,4-1.3,3.9-1.3,5.1a5,5,0,0,0,.8,3.6,4.5,4.5,0,0,0,2.7,2c.8.4,1.9.4,4,.6a12.1,12.1,0,0,0,3.8,0,7.2,7.2,0,0,0,2.5-.7,4.6,4.6,0,0,0,1.8-2.1c.4-.8,2.9-5.9-.3-9.8a10.7,10.7,0,0,0-10.6-2.9Z" transform="translate(0 0.1)"/><path class="cls-3" d="M165.2,13.7a5.2,5.2,0,0,0-1.9,2,3.8,3.8,0,0,0-.5,2.1,48.9,48.9,0,0,1-.5,6.6V34.6l.3,11.7c-.1,1.6.1,3.7,0,6.2a41.5,41.5,0,0,0,.2,6.1c.3,5.7.6,6.6,1,7.3a9.6,9.6,0,0,0,4,4c.4.1,3.5,1.4,6.1.1s2.4-3,3.1-5.5a118,118,0,0,0,3-11.7c3.1-13.7,4.4-23.6,5.1-26.3,0,0,.2-1,.4-2.4s.8-4.1.5-5.2-2.9-3.1-5.3-4.2C174.2,11.7,167.6,12.1,165.2,13.7Z" transform="translate(0 0.1)"/><path class="cls-3" d="M119.6,189.2a3.4,3.4,0,0,0-1.2,1.2,5.3,5.3,0,0,0-.5,2.5c-.2,3.2-.4,3.1-.2,4a4.5,4.5,0,0,0,1,2.7,3.1,3.1,0,0,0,2,1.1,6.6,6.6,0,0,0,2.8-.1,10.9,10.9,0,0,0,2.6-.5l1.5-.9a3.8,3.8,0,0,0,.9-1.8c.2-.8,1.2-4.9-1.4-7.4a6.7,6.7,0,0,0-4.3-1.6A7.2,7.2,0,0,0,119.6,189.2Z" transform="translate(0 0.1)"/><path class="cls-3" d="M110.7,139.6a4,4,0,0,0-1,1.8,2.2,2.2,0,0,0,0,1.6c.2,1.2.3,2.8.5,5.1l1.3,7.8,1.7,8.8c.1,1.3.6,2.8.8,4.7a34,34,0,0,0,.9,4.6c1,4.3,1.3,4.9,1.6,5.4a7.2,7.2,0,0,0,3.2,2.5c.3,0,2.6.6,4.1-.8s1.2-2.6,1.3-4.6a72.6,72.6,0,0,0,.6-9.3c.3-10.8-.2-18.5-.1-20.7v-1.8c0-2.2,0-3.3-.4-4a8.6,8.6,0,0,0-4-2.5C116.5,136.9,112.1,138.1,110.7,139.6Z" transform="translate(0 0.1)"/><path class="cls-3" d="M183.1,159.5a2.4,2.4,0,0,0,.9-.6,3.2,3.2,0,0,0,.3-1.4c.2-1.7.4-1.7.3-2.2a2.8,2.8,0,0,0-.6-1.5,3.3,3.3,0,0,0-1.3-.7h-1.8l-1.7.3-1.1.4a2.1,2.1,0,0,0-.6,1c-.1.4-.9,2.7.8,4.2a4.4,4.4,0,0,0,2.7.9A5.2,5.2,0,0,0,183.1,159.5Z" transform="translate(0 0.1)"/><path class="cls-3" d="M187.7,187.4a3.6,3.6,0,0,0,.7-1,1.4,1.4,0,0,0,0-.9c-.1-.7-.1-1.6-.2-2.9l-.6-4.3-.9-5c-.1-.7-.3-1.5-.4-2.6a14.7,14.7,0,0,0-.5-2.6,13.9,13.9,0,0,0-.9-3,3,3,0,0,0-5.7,1.4,46,46,0,0,0-.6,5.2c-.5,6-.4,10.3-.5,11.5a3.4,3.4,0,0,0-.1,1,5.8,5.8,0,0,0,.2,2.3c.4.8,1.5,1.1,2.6,1.4C183.8,188.8,186.7,188.2,187.7,187.4Z" transform="translate(0 0.1)"/><path class="cls-3" d="M157.8,276.4a3.5,3.5,0,0,0-2.5,3.2c-.9,3.1-1.1,3-1.2,3.9a5.3,5.3,0,0,0,.4,2.8,4.4,4.4,0,0,0,1.7,1.6,8.7,8.7,0,0,0,2.8.5,11.3,11.3,0,0,0,2.6.1,4.9,4.9,0,0,0,1.7-.6,3.7,3.7,0,0,0,1.3-1.5c.3-.7,2.3-4.5.3-7.5a6.8,6.8,0,0,0-7.1-2.5Z" transform="translate(0 0.1)"/><path class="cls-3" d="M160.4,226.1a5,5,0,0,0-1.4,1.5,9.4,9.4,0,0,0-.4,1.6,40.2,40.2,0,0,1-.6,5l-.5,7.9-.4,9c-.2,1.3-.1,2.9-.3,4.8a34.8,34.8,0,0,0-.1,4.7c-.1,4.4.1,5,.3,5.6a6.1,6.1,0,0,0,2.6,3.1c.2.1,2.3,1.2,4.1.2s1.8-2.2,2.4-4.2,1.7-4.9,2.7-8.9c2.7-10.5,4-18.1,4.6-20.1,0,0,.2-.8.4-1.9a13.2,13.2,0,0,0,.6-3.9c-.3-1.6-1.9-2.5-3.5-3.4C166.7,224.7,162.2,224.9,160.4,226.1Z" transform="translate(0 0.1)"/><path class="cls-3" d="M99.8,264.9l-.6.6a3.4,3.4,0,0,0-.1,1c.1,1.3,0,1.3.2,1.7a1.4,1.4,0,0,0,.7,1l1.1.3,1.5-.3,1.3-.5a1.8,1.8,0,0,0,.7-.5,1.2,1.2,0,0,0,.4-.8c0-.3.3-2.1-1.2-2.9a3,3,0,0,0-2.3-.2A4.9,4.9,0,0,0,99.8,264.9Z" transform="translate(0 0.1)"/><path class="cls-3" d="M92.1,245.6a2,2,0,0,0-.4.8c0,.3.1.5.1.7a6.6,6.6,0,0,1,.6,2l1.1,3,1.5,3.4a14.6,14.6,0,0,0,.7,1.9,13.4,13.4,0,0,0,.7,1.8,8.2,8.2,0,0,0,1.2,2,2.9,2.9,0,0,0,1.8.7,3.1,3.1,0,0,0,2.1-.7c.5-.4.5-1.1.5-2a32.9,32.9,0,0,0-.3-3.8c-.5-4.4-1.2-7.5-1.3-8.4a1.7,1.7,0,0,0-.1-.7c-.2-.9-.2-1.4-.5-1.6a6.3,6.3,0,0,0-2.2-.7C95,243.9,92.8,244.8,92.1,245.6Z" transform="translate(0 0.1)"/><path class="cls-3" d="M217.6,237.3a1,1,0,0,0-.7.4,1.8,1.8,0,0,0-.4,1,4.5,4.5,0,0,0-.3,1.6,1.2,1.2,0,0,0,.4,1.1,2.1,2.1,0,0,0,1,.6h2.9l.8-.2.6-.7a2.7,2.7,0,0,0-.4-3.1,4,4,0,0,0-2.1-.9A3.7,3.7,0,0,0,217.6,237.3Z" transform="translate(0 0.1)"/><path class="cls-3" d="M215.6,216.6l-.7.6a1.7,1.7,0,0,0-.1.7,14.8,14.8,0,0,1,.1,2.1l.2,3.2.4,3.7c0,.5.2,1.2.2,2a6.3,6.3,0,0,0,.3,1.9,5.9,5.9,0,0,0,.5,2.3,2.8,2.8,0,0,0,1.6,1.2,3.3,3.3,0,0,0,2.2-.1c.6-.3.8-1,.9-1.8a16.1,16.1,0,0,0,.8-3.8c.8-4.3.9-7.5,1.1-8.4a1.7,1.7,0,0,0,.1-.7c.1-.9.2-1.3,0-1.7a4,4,0,0,0-2-1.2C220.3,216.3,216.4,216,215.6,216.6Z" transform="translate(0 0.1)"/><path class="cls-3" d="M255.8,208.4a4.5,4.5,0,0,0-2.1,1.2c-.8.7-.9,1.4-1.3,3-1.1,4-1.3,3.9-1.4,5.1a5.7,5.7,0,0,0,.9,3.6,5.2,5.2,0,0,0,2.6,2,9.5,9.5,0,0,0,4.1.6,12.1,12.1,0,0,0,3.8,0,5.5,5.5,0,0,0,2.5-.7,5.8,5.8,0,0,0,1.7-2.1c.5-.8,3-5.9-.2-9.7a11.3,11.3,0,0,0-10.6-3Z" transform="translate(0 0.1)"/><path class="cls-3" d="M255.2,142.9a6.1,6.1,0,0,0-1.9,2,5.2,5.2,0,0,0-.4,2.1c0,1.6-.2,3.6-.5,6.6v10.2l.2,11.7c-.1,1.6.2,3.7.1,6.2a41.5,41.5,0,0,0,.2,6.1c.3,5.7.6,6.6,1,7.3a7.8,7.8,0,0,0,4,4c.4.1,3.5,1.4,6,.1s2.5-3,3.2-5.5a118.5,118.5,0,0,0,3.1-11.7c3.1-13.7,4.4-23.6,5-26.3a20.5,20.5,0,0,0,.5-2.4c.5-2.7.8-4.1.5-5.2s-3-3.1-5.4-4.2C264.3,140.9,257.7,141.3,255.2,142.9Z" transform="translate(0 0.1)"/><path class="cls-3" d="M298.7,54a3.7,3.7,0,0,0-1.3,1.2,5.3,5.3,0,0,0-.5,2.5c-.1,3.2-.3,3.1-.2,4a5.4,5.4,0,0,0,1.1,2.7,3.1,3.1,0,0,0,2,1.1,6.6,6.6,0,0,0,2.8-.1,5.4,5.4,0,0,0,2.5-.6,3.3,3.3,0,0,0,2.5-2.7c.2-.7,1.2-4.8-1.5-7.3a5.4,5.4,0,0,0-4.2-1.6A7.2,7.2,0,0,0,298.7,54Z" transform="translate(0 0.1)"/><path class="cls-3" d="M289.8,4.4a4,4,0,0,0-1,1.8,4.3,4.3,0,0,0-.1,1.6c.2,1.2.4,2.8.6,5.1l1.2,7.8,1.7,8.8c.2,1.3.6,2.8.9,4.7a37.3,37.3,0,0,0,.9,4.6c.9,4.3,1.2,4.9,1.6,5.4a5.5,5.5,0,0,0,3.2,2.4,4.1,4.1,0,0,0,4-.7c1.1-.9,1.3-2.6,1.4-4.6a72.6,72.6,0,0,0,.6-9.3c.2-10.8-.2-18.5-.1-20.7V9.5a11.2,11.2,0,0,0-.4-4.1C303.7,4,302,3.5,300.2,3,295.5,1.6,291.2,2.8,289.8,4.4Z" transform="translate(0 0.1)"/><path class="cls-3" d="M362.2,30.3a1.6,1.6,0,0,0,.8-.6,2.3,2.3,0,0,0,.4-1.4c.2-1.8.3-1.7.3-2.2a2,2,0,0,0-.6-1.5,2.1,2.1,0,0,0-1.3-.7h-1.9l-1.7.2-1,.5a2.1,2.1,0,0,0-.6,1c-.2.4-.9,2.7.7,4.1a4.8,4.8,0,0,0,2.8,1A5.2,5.2,0,0,0,362.2,30.3Z" transform="translate(0 0.1)"/><path class="cls-3" d="M366.7,58.2a2.3,2.3,0,0,0,.7-1,1.7,1.7,0,0,0,.1-1,26.4,26.4,0,0,1-.2-2.8l-.7-4.3-.8-5c-.1-.7-.3-1.6-.5-2.6a23.4,23.4,0,0,0-.4-2.6c-.5-2.4-.7-2.8-1-3.1a3.5,3.5,0,0,0-2-1.4,3.9,3.9,0,0,0-2.6.3c-.8.5-.9,1.5-1.1,2.6a37.5,37.5,0,0,0-.6,5.2c-.4,6-.3,10.3-.4,11.5a3.4,3.4,0,0,0-.1,1,6,6,0,0,0,.1,2.3c.4.8,1.5,1.1,2.7,1.4C362.9,59.6,365.8,59,366.7,58.2Z" transform="translate(0 0.1)"/><path class="cls-3" d="M336.8,147.2a4.2,4.2,0,0,0-1.4.9,4.9,4.9,0,0,0-1.1,2.3c-.9,3.1-1,3-1.1,3.9a4.5,4.5,0,0,0,.4,2.8,4.4,4.4,0,0,0,1.7,1.6,8.6,8.6,0,0,0,2.7.5,12.2,12.2,0,0,0,2.7.1,4.9,4.9,0,0,0,1.7-.6,4.7,4.7,0,0,0,1.3-1.5c.3-.7,2.2-4.5.2-7.5a5.9,5.9,0,0,0-3.7-2.5A6.5,6.5,0,0,0,336.8,147.2Z" transform="translate(0 0.1)"/><path class="cls-3" d="M339.5,96.9a4,4,0,0,0-1.4,1.5,4.2,4.2,0,0,0-.4,1.6c-.1,1.2-.3,2.8-.6,5l-.6,7.9-.3,9c-.2,1.2-.1,2.8-.3,4.8s-.1,2.3-.2,4.7c0,4.3.2,5,.4,5.6a6.1,6.1,0,0,0,2.6,3.1c.2.1,2.3,1.2,4.1.2s1.7-2.3,2.3-4.2,1.8-5,2.7-8.9c2.7-10.5,4.1-18.1,4.7-20.2,0,0,.2-.7.4-1.8a14.6,14.6,0,0,0,.5-4c-.2-.9-1.8-2.4-3.4-3.3C345.7,95.5,341.2,95.7,339.5,96.9Z" transform="translate(0 0.1)"/><path class="cls-3" d="M293.8,135.7l-.5.6c-.2.3-.2.5-.1,1a4.9,4.9,0,0,0,.1,1.7,1.4,1.4,0,0,0,.7,1l1.1.2c.3.1.7-.1,1.5-.3l1.3-.4.7-.5a2,2,0,0,0,.4-.8c0-.3.3-2.1-1.2-2.9a3,3,0,0,0-2.3-.2A4.9,4.9,0,0,0,293.8,135.7Z" transform="translate(0 0.1)"/><path class="cls-3" d="M286.2,116.3a4.1,4.1,0,0,0-.5.9,1.3,1.3,0,0,0,.1.6,6.6,6.6,0,0,1,.6,2l1.2,3.1,1.4,3.4c.1.5.5,1.1.7,1.9a5.3,5.3,0,0,0,.8,1.7c.7,1.7.9,1.9,1.1,2.1a4.4,4.4,0,0,0,1.9.7,3.1,3.1,0,0,0,2-.7c.5-.4.5-1.2.5-2a24.3,24.3,0,0,0-.3-3.8c-.5-4.4-1.2-7.5-1.3-8.4a2.2,2.2,0,0,0-.1-.8,2.8,2.8,0,0,0-.4-1.5c-.5-.6-1.4-.6-2.3-.7C289,114.7,286.8,115.6,286.2,116.3Z" transform="translate(0 0.1)"/><path class="cls-3" d="M393.5,102.1l-.7.4c-.3.3-.3.5-.4,1a5.5,5.5,0,0,0-.3,1.6,1.4,1.4,0,0,0,.4,1.2,2.1,2.1,0,0,0,1,.6h2.8l.9-.3c.1,0,.4-.2.6-.7a2.4,2.4,0,0,0-.4-3,3.1,3.1,0,0,0-2.2-.9A4.9,4.9,0,0,0,393.5,102.1Z" transform="translate(0 0.1)"/><path class="cls-3" d="M391.4,81.4c-.2.2-.5.4-.6.7a1.7,1.7,0,0,0-.1.7,7.4,7.4,0,0,1,0,2.1l.3,3.2.4,3.7c0,.5.2,1.1.2,1.9a16.8,16.8,0,0,0,.2,2,6.7,6.7,0,0,0,.6,2.3,3.6,3.6,0,0,0,1.6,1.1,2.6,2.6,0,0,0,2.1,0c.6-.3.8-1,1-1.8s.6-2.5.8-3.8c.7-4.4.9-7.5,1.1-8.4a2.2,2.2,0,0,1,.1-.8,4.3,4.3,0,0,0,0-1.6c-.3-.7-1.1-.9-2-1.3A8,8,0,0,0,391.4,81.4Z" transform="translate(0 0.1)"/><path class="cls-3" d="M430.7,78.7a5.5,5.5,0,0,0-2.1,1.2c-.7.8-.8,1.5-1.3,3.1-1,4-1.3,3.9-1.3,5.1a6.4,6.4,0,0,0,.8,3.6,6,6,0,0,0,2.7,2c.8.4,1.9.4,4.1.6a24.1,24.1,0,0,0,3.8,0,7.3,7.3,0,0,0,2.5-.8,5.5,5.5,0,0,0,1.7-2c.5-.9,3-5.9-.2-9.8a11,11,0,0,0-5.8-3.1A11.6,11.6,0,0,0,430.7,78.7Z" transform="translate(0 0.1)"/><path class="cls-3" d="M430.2,13.2a6.4,6.4,0,0,0-1.9,2.1,5.2,5.2,0,0,0-.4,2.1c0,1.5-.2,3.6-.5,6.5V34.2l.2,11.6c-.1,1.7.2,3.8.1,6.3s0,3.1.1,6.1c.4,5.7.7,6.5,1.1,7.3a7.3,7.3,0,0,0,4,3.9c.3.2,3.5,1.5,6,.2s2.4-3,3.1-5.5a91.8,91.8,0,0,0,3.2-11.7c3.1-13.7,4.4-23.7,5-26.3l.5-2.4c.5-2.8.7-4.2.4-5.2s-2.9-3.1-5.3-4.2C439.3,11.3,432.6,11.7,430.2,13.2Z" transform="translate(0 0.1)"/><path class="cls-3" d="M389.4,202a3.7,3.7,0,0,0-1.3,1.2,4.3,4.3,0,0,0-.4,2.5c-.2,3.2-.4,3.1-.3,4.1a4.7,4.7,0,0,0,1.1,2.6,3.1,3.1,0,0,0,2,1.1,6.6,6.6,0,0,0,2.8-.1,11.1,11.1,0,0,0,2.5-.5,4.2,4.2,0,0,0,1.6-.9,5.1,5.1,0,0,0,.9-1.8c.2-.7,1.2-4.9-1.4-7.4a7.3,7.3,0,0,0-4.3-1.6A7.2,7.2,0,0,0,389.4,202Z" transform="translate(0 0.1)"/><path class="cls-3" d="M380.5,152.4a4,4,0,0,0-1,1.8,4.9,4.9,0,0,0-.1,1.7c.2,1.1.4,2.7.6,5l1.2,7.8,1.7,8.8c.2,1.3.6,2.8.9,4.7a34,34,0,0,0,.9,4.6c.9,4.3,1.3,4.9,1.6,5.4a5.7,5.7,0,0,0,3.2,2.5c.3,0,2.5.6,4.1-.7s1.2-2.7,1.3-4.7a72.6,72.6,0,0,0,.6-9.3c.2-10.8-.2-18.5-.1-20.6v-1.9c0-2.2,0-3.3-.4-4a8.5,8.5,0,0,0-4.1-2.5C386.2,149.7,381.9,150.9,380.5,152.4Z" transform="translate(0 0.1)"/><path class="cls-3" d="M447.6,149.7a1.6,1.6,0,0,0,.8-.6,2.3,2.3,0,0,0,.4-1.4c.2-1.7.3-1.7.2-2.2a2,2,0,0,0-.6-1.5,2.1,2.1,0,0,0-1.3-.7,5.4,5.4,0,0,0-1.8,0l-1.7.3-1,.4a2.1,2.1,0,0,0-.6,1c-.2.4-1,2.7.7,4.2a4.4,4.4,0,0,0,2.7.9A5.4,5.4,0,0,0,447.6,149.7Z" transform="translate(0 0.1)"/><path class="cls-3" d="M452.1,177.6a3.6,3.6,0,0,0,.7-1,1.4,1.4,0,0,0,.1-.9,28.3,28.3,0,0,1-.2-2.9l-.7-4.3-.8-5c-.1-.7-.4-1.5-.5-2.6a23.4,23.4,0,0,0-.4-2.6c-.6-2.4-.8-2.8-1-3a3.7,3.7,0,0,0-2-1.5,4.2,4.2,0,0,0-2.7.3c-.7.5-.8,1.5-1,2.6a37.5,37.5,0,0,0-.6,5.2c-.4,6-.4,10.3-.5,11.5v1a5.9,5.9,0,0,0,.1,2.3c.4.8,1.5,1.1,2.6,1.4C448.3,179,451.2,178.4,452.1,177.6Z" transform="translate(0 0.1)"/><path class="cls-3" d="M426.9,276.4a3.8,3.8,0,0,0-1.5.9,6.7,6.7,0,0,0-1,2.3c-.9,3.1-1.1,3-1.1,3.9a3.9,3.9,0,0,0,.4,2.8,3.7,3.7,0,0,0,1.7,1.6,6.5,6.5,0,0,0,2.7.5,11.3,11.3,0,0,0,2.6.1,2.7,2.7,0,0,0,1.7-.6,3.7,3.7,0,0,0,1.3-1.5c.4-.7,2.3-4.5.3-7.5a6.8,6.8,0,0,0-7.1-2.5Z" transform="translate(0 0.1)"/><path class="cls-3" d="M429.6,226.1a4,4,0,0,0-1.4,1.5,2.9,2.9,0,0,0-.4,1.6c-.1,1.2-.3,2.8-.6,5l-.6,7.9-.4,9c-.1,1.3,0,2.9-.2,4.8s-.2,3.1-.2,4.7c0,4.4.1,5,.4,5.6a5.5,5.5,0,0,0,2.5,3.1c.3.1,2.3,1.2,4.1.2s1.8-2.2,2.4-4.2a70.1,70.1,0,0,0,2.7-8.9c2.7-10.5,4.1-18.1,4.6-20.1l.5-1.9c.4-2.1.7-3.1.5-3.9s-1.8-2.5-3.4-3.4C435.8,224.7,431.3,224.9,429.6,226.1Z" transform="translate(0 0.1)"/><path class="cls-3" d="M383.8,254.6l-.6.6c-.2.3-.1.6-.1,1.1a8.6,8.6,0,0,0,.1,1.6c.2.4.3.8.7,1a2.7,2.7,0,0,0,1.2.3l1.4-.3a2.9,2.9,0,0,0,1.3-.5,1.4,1.4,0,0,0,.8-.5,1.1,1.1,0,0,0,.3-.8,2.4,2.4,0,0,0-1.2-2.8,4.2,4.2,0,0,0-3.9.3Z" transform="translate(0 0.1)"/><path class="cls-3" d="M376.1,235.3a2,2,0,0,0-.4.8.9.9,0,0,0,.1.7c.2.5.3,1.1.6,2l1.1,3,1.4,3.5a13.4,13.4,0,0,1,.7,1.8l.8,1.8c.8,1.6,1,1.9,1.2,2a2.4,2.4,0,0,0,1.8.7,2.6,2.6,0,0,0,2.1-.6,2.4,2.4,0,0,0,.4-2c0-1.3-.1-2.6-.2-3.9-.6-4.4-1.3-7.5-1.3-8.3a2.2,2.2,0,0,1-.1-.8,4.3,4.3,0,0,0-.5-1.6,3.2,3.2,0,0,0-2.3-.6A8.7,8.7,0,0,0,376.1,235.3Z" transform="translate(0 0.1)"/><path class="cls-3" d="M474.6,215.8a1.1,1.1,0,0,0-.8.2,1.5,1.5,0,0,0-.6.9,5.1,5.1,0,0,0-.7,1.5,1.7,1.7,0,0,0,.1,1.2,2.4,2.4,0,0,0,.9.8l1.4.4,1.3.3h.9l.8-.5c.1-.2,1.3-1.7.3-3.1a3.1,3.1,0,0,0-1.9-1.3A3.3,3.3,0,0,0,474.6,215.8Z" transform="translate(0 0.1)"/><path class="cls-3" d="M477.5,195.2a1.8,1.8,0,0,0-.7.5.9.9,0,0,0-.3.6,14.6,14.6,0,0,1-.5,2l-.5,3.2-.5,3.7c-.1.5-.1,1.2-.3,2a10.1,10.1,0,0,0-.2,1.9,9.6,9.6,0,0,0,0,2.4,3.2,3.2,0,0,0,1.3,1.5,2.6,2.6,0,0,0,2.1.4c.7-.1,1-.7,1.4-1.5s1-1.9,1.6-3.4c1.8-4.1,2.7-7.2,3.1-8l.3-.7a4.2,4.2,0,0,0,.4-1.6c-.1-.7-.9-1.1-1.7-1.7S478.5,194.8,477.5,195.2Z" transform="translate(0 0.1)"/><path class="cls-3" d="M309.8,268a6,6,0,0,0-2.1,1.4c-.8.8-.9,1.6-1.4,3.3-1.1,4.4-1.3,4.3-1.4,5.7a7.8,7.8,0,0,0,.8,4,5.6,5.6,0,0,0,2.7,2.1,9.1,9.1,0,0,0,4,.6,17,17,0,0,0,3.9-.1,4.9,4.9,0,0,0,2.4-.8,5.8,5.8,0,0,0,1.8-2.3c.5-1,3.1-6.5-.1-10.8a9.8,9.8,0,0,0-5.7-3.3A11.6,11.6,0,0,0,309.8,268Z" transform="translate(0 0.1)"/><path class="cls-3" d="M310.2,195.9a5.7,5.7,0,0,0-1.9,2.2,4.6,4.6,0,0,0-.5,2.3c-.1,2.4-.3,4.9-.6,7.3L307,219v12.8c-.2,1.8.1,4.1-.1,6.9a51.1,51.1,0,0,0,.1,6.7c.2,6.3.5,7.2.9,8a8.4,8.4,0,0,0,4,4.3c.3.2,3.5,1.6,6,.1s2.5-3.3,3.2-6.1a111.1,111.1,0,0,0,3.4-12.9c3.2-15.2,4.7-26.1,5.4-29.1l.5-2.6c.5-3.1.8-4.6.5-5.8s-2.9-3.4-5.3-4.5C319.3,193.6,312.7,194.1,310.2,195.9Z" transform="translate(0 0.1)"/><path class="cls-3" d="M225.2,91.1a3.8,3.8,0,0,0,1.3-.9,4.7,4.7,0,0,0,.6-2c.3-2.5.5-2.5.3-3.2a2.9,2.9,0,0,0-.9-2.1,4.2,4.2,0,0,0-2-1,13.1,13.1,0,0,0-2.8,0,7.3,7.3,0,0,0-2.5.4,4.4,4.4,0,0,0-1.6.6,4.5,4.5,0,0,0-1,1.4c-.2.6-1.4,3.9,1.1,5.9a7.1,7.1,0,0,0,4.2,1.4A7.6,7.6,0,0,0,225.2,91.1Z" transform="translate(0 0.1)"/><path class="cls-3" d="M232.1,130.7a3,3,0,0,0,1.1-1.4,2.9,2.9,0,0,0,.1-1.3,26.9,26.9,0,0,1-.3-4l-1-6.2-1.3-7.1c-.1-1-.5-2.2-.7-3.7s-.4-2.5-.7-3.7c-.8-3.5-1.1-3.9-1.4-4.4a5.8,5.8,0,0,0-3.1-2,5.3,5.3,0,0,0-4.1.5c-1.1.7-1.3,2-1.6,3.6s-.7,4.9-.9,7.4c-.7,8.6-.6,14.7-.7,16.4a7.6,7.6,0,0,0-.1,1.5,6.9,6.9,0,0,0,.2,3.2c.6,1.1,2.3,1.6,4,2C226.2,132.7,230.7,131.9,232.1,130.7Z" transform="translate(0 0.1)"/><path class="cls-3" d="M253.7,60.9l-.8.2a1.5,1.5,0,0,0-.6.9c-.6,1.2-.7,1.1-.8,1.5a2.5,2.5,0,0,0,.1,1.2,2.4,2.4,0,0,0,.9.8,3.4,3.4,0,0,0,1.4.5l1.3.3h.9a1.4,1.4,0,0,0,.8-.5,2.7,2.7,0,0,0,.4-3.1,4.1,4.1,0,0,0-1.9-1.3A4.8,4.8,0,0,0,253.7,60.9Z" transform="translate(0 0.1)"/><path class="cls-3" d="M257,40.4a1.8,1.8,0,0,0-.7.5.9.9,0,0,0-.3.6c-.1.5-.3,1.1-.5,2l-.6,3.2-.6,3.7-.3,1.9c-.1.5-.1,1-.2,2a10,10,0,0,0-.1,2.3,3.1,3.1,0,0,0,1.2,1.6c.2,0,1.2.7,2.1.5a2.8,2.8,0,0,0,1.5-1.5c.4-.9,1.1-1.9,1.7-3.5,1.8-4,2.8-7,3.2-7.8l.3-.7c.3-.8.5-1.3.4-1.6a4.8,4.8,0,0,0-1.6-1.7C261.7,41.4,258,40.1,257,40.4Z" transform="translate(0 0.1)"/><path class="cls-3" d="M487,93.4a3,3,0,0,0,1.3-.9c.5-.5.5-1,.6-2a19.9,19.9,0,0,0,.4-3.2,3.3,3.3,0,0,0-.9-2.1,5.4,5.4,0,0,0-2-1,13.1,13.1,0,0,0-2.8.1l-2.6.3a4.6,4.6,0,0,0-1.6.7,2.8,2.8,0,0,0-1,1.4c-.2.5-1.4,3.8,1.2,5.9a7,7,0,0,0,4.2,1.3A8.6,8.6,0,0,0,487,93.4Z" transform="translate(0 0.1)"/><path class="cls-3" d="M494,133.1a3.3,3.3,0,0,0,1-1.4,2.2,2.2,0,0,0,.1-1.4c-.1-.9-.2-2.2-.3-4l-1-6.2-1.3-7c-.1-1.1-.5-2.3-.6-3.8a20.7,20.7,0,0,0-.8-3.7c-.8-3.4-1.1-3.9-1.4-4.3a6,6,0,0,0-3.1-2.1c-.3,0-2.5-.5-4.1.5s-1.3,2-1.5,3.6a59.9,59.9,0,0,0-1,7.4c-.7,8.6-.5,14.7-.7,16.4a7.6,7.6,0,0,0-.1,1.5,6.9,6.9,0,0,0,.2,3.2c.6,1.2,2.3,1.6,4,2.1C488.1,135.1,492.5,134.2,494,133.1Z" transform="translate(0 0.1)"/><path class="cls-3" d="M479.1,32.2l-.8.3c-.3.1-.4.3-.6.8s-.7,1.1-.8,1.5A2.5,2.5,0,0,0,477,36a1.8,1.8,0,0,0,.9.8,3.4,3.4,0,0,0,1.4.5l1.3.3h.9l.8-.5a2.4,2.4,0,0,0,.4-3,3.8,3.8,0,0,0-1.9-1.4A4.8,4.8,0,0,0,479.1,32.2Z" transform="translate(0 0.1)"/><path class="cls-3" d="M482.4,11.7l-.8.5a1.4,1.4,0,0,0-.2.6c-.1.5-.3,1.2-.5,2l-.6,3.2-.6,3.7c-.1.5-.1,1.2-.3,2l-.3,1.9c-.2,1.8-.1,2.1,0,2.3a2.8,2.8,0,0,0,1.2,1.6,3.1,3.1,0,0,0,2.1.5,2.3,2.3,0,0,0,1.4-1.5c.5-.9,1.1-1.9,1.8-3.4,1.8-4.1,2.8-7.1,3.2-7.9l.3-.7a4.2,4.2,0,0,0,.4-1.6c-.1-.7-.9-1.2-1.7-1.7S483.4,11.4,482.4,11.7Z" transform="translate(0 0.1)"/><path class="cls-3" d="M47.9,197.5a2.7,2.7,0,0,0,1.2-.9c.5-.5.5-1,.6-2a21.4,21.4,0,0,0,.4-3.2,2.9,2.9,0,0,0-.9-2.1,4.2,4.2,0,0,0-2-1,13.1,13.1,0,0,0-2.8,0l-2.6.4a3.3,3.3,0,0,0-1.6.7,4.5,4.5,0,0,0-1,1.4c-.2.5-1.4,3.8,1.2,5.9a7,7,0,0,0,4.2,1.3A9.5,9.5,0,0,0,47.9,197.5Z" transform="translate(0 0.1)"/><path class="cls-3" d="M54.8,237.1a3,3,0,0,0,1.1-1.4,1.5,1.5,0,0,0,0-1.3c-.1-.9-.2-2.2-.3-4l-.9-6.2-1.4-7.1c-.1-1-.5-2.2-.6-3.7a22.1,22.1,0,0,0-.8-3.7c-.7-3.4-1-3.9-1.4-4.4a5.8,5.8,0,0,0-3.1-2c-.3,0-2.5-.6-4.1.5s-1.3,2-1.5,3.6a59.9,59.9,0,0,0-1,7.4c-.6,8.6-.5,14.7-.7,16.4a7.6,7.6,0,0,0-.1,1.5c0,1.7-.1,2.6.2,3.2s2.3,1.6,4,2C48.9,239.1,53.3,238.3,54.8,237.1Z" transform="translate(0 0.1)"/><path class="cls-3" d="M19.3,253a1.6,1.6,0,0,0,.9-.7,2.8,2.8,0,0,0,.3-1.3c.2-1.8.4-1.8.3-2.3a3.9,3.9,0,0,0-.6-1.5l-1.3-.7a5.5,5.5,0,0,0-1.8.1,3.2,3.2,0,0,0-1.7.2l-1.1.5a2.1,2.1,0,0,0-.6,1c-.1.4-.9,2.6.8,4.1a5.2,5.2,0,0,0,2.7,1A7.8,7.8,0,0,0,19.3,253Z" transform="translate(0 0.1)"/><path class="cls-3" d="M23.9,280.8a2.3,2.3,0,0,0,.7-1,1.4,1.4,0,0,0,0-.9c-.1-.7-.1-1.5-.2-2.8l-.6-4.4-.9-4.9c-.1-.7-.3-1.6-.4-2.7a14.7,14.7,0,0,0-.5-2.6,16.2,16.2,0,0,0-.9-3,3.8,3.8,0,0,0-2.1-1.4,3,3,0,0,0-2.6.3,3,3,0,0,0-1,2.5,46,46,0,0,0-.6,5.2c-.5,6-.4,10.3-.5,11.5a4.1,4.1,0,0,0-.1,1.1,5.5,5.5,0,0,0,.2,2.2c.4.8,1.5,1.1,2.6,1.5C20,282.2,22.9,281.6,23.9,280.8Z" transform="translate(0 0.1)"/><path class="cls-3" d="M476.2,495.6a2.8,2.8,0,0,0,1.3-1.1,5.8,5.8,0,0,0,.5-2.6c.1-3.1.3-3.1.2-4a5.2,5.2,0,0,0-1-2.6,4.5,4.5,0,0,0-2.1-1.2,13.1,13.1,0,0,0-2.8.1l-2.5.6a4.2,4.2,0,0,0-1.6.9,5.1,5.1,0,0,0-.9,1.8c-.2.7-1.2,4.8,1.5,7.4a6.7,6.7,0,0,0,7.4.7Z" transform="translate(0 0.1)"/><path class="cls-3" d="M13.1,181.9a1.6,1.6,0,0,0-.8.6,2.3,2.3,0,0,0-.4,1.4c-.2,1.8-.3,1.7-.3,2.3a3.9,3.9,0,0,0,.6,1.5,3.1,3.1,0,0,0,1.3.6h1.9l1.6-.2a2.2,2.2,0,0,0,1.1-.5,2.1,2.1,0,0,0,.6-1c.1-.4.9-2.7-.7-4.1a4.8,4.8,0,0,0-2.8-1A5.2,5.2,0,0,0,13.1,181.9Z" transform="translate(0 0.1)"/><path class="cls-3" d="M8.6,154.1a2.3,2.3,0,0,0-.7,1,2.8,2.8,0,0,0-.1.9,26.4,26.4,0,0,1,.2,2.8l.7,4.4.8,4.9c.1.7.4,1.6.5,2.6a23.4,23.4,0,0,0,.4,2.6c.5,2.4.7,2.8,1,3.1a3.5,3.5,0,0,0,2,1.4,3.9,3.9,0,0,0,2.6-.3c.8-.5.9-1.4,1.1-2.6a39.9,39.9,0,0,0,.6-5.1c.4-6.1.4-10.4.5-11.5v-1.1a5.5,5.5,0,0,0-.1-2.2c-.4-.9-1.5-1.2-2.6-1.5C12.4,152.7,9.6,153.2,8.6,154.1Z" transform="translate(0 0.1)"/><path class="cls-3" d="M431.2,445.8a2.9,2.9,0,0,0,1.4-.8,5.3,5.3,0,0,0,1.1-2.4c.9-3,1-2.9,1.1-3.9a4.5,4.5,0,0,0-.4-2.8,3.5,3.5,0,0,0-1.7-1.5,13.1,13.1,0,0,0-2.7-.6,11.3,11.3,0,0,0-2.6,0,3.7,3.7,0,0,0-1.8.5,4.7,4.7,0,0,0-1.3,1.5c-.3.7-2.2,4.5-.2,7.6a5.8,5.8,0,0,0,3.7,2.4A6.5,6.5,0,0,0,431.2,445.8Z" transform="translate(0 0.1)"/><path class="cls-3" d="M428.4,496.2a4.3,4.3,0,0,0,1.4-1.6,2.9,2.9,0,0,0,.4-1.6c.1-1.2.3-2.7.7-5l.5-7.9.4-8.9c.2-1.3.1-2.9.3-4.8a35.2,35.2,0,0,0,.1-4.7c.1-4.4-.1-5.1-.3-5.6a5.7,5.7,0,0,0-2.6-3.1,4.3,4.3,0,0,0-4.1-.3c-1.2.7-1.8,2.3-2.4,4.2s-1.7,5-2.7,8.9c-2.7,10.5-4,18.1-4.6,20.2,0,0-.2.7-.4,1.8a13.4,13.4,0,0,0-.6,4c.3,1.6,1.8,2.4,3.4,3.3C422.2,497.5,426.7,497.3,428.4,496.2Z" transform="translate(0 0.1)"/><path class="cls-3" d="M482.5,430l.5-.6a1.2,1.2,0,0,0,.2-1c-.1-1.4,0-1.3-.2-1.7a1.4,1.4,0,0,0-.7-1,2,2,0,0,0-1.1-.3l-1.5.3-1.3.5a1.8,1.8,0,0,0-.7.5,1.2,1.2,0,0,0-.4.8c0,.3-.3,2.1,1.2,2.9a3.6,3.6,0,0,0,2.3.2A4.9,4.9,0,0,0,482.5,430Z" transform="translate(0 0.1)"/><path class="cls-3" d="M490.1,449.3a1.2,1.2,0,0,0,.4-.8.9.9,0,0,0-.1-.7c-.1-.4-.3-1-.5-2l-1.2-3-1.4-3.4c-.1-.5-.5-1.1-.7-1.9a14.2,14.2,0,0,0-.8-1.8c-.7-1.6-.9-1.8-1.1-2a3.2,3.2,0,0,0-1.9-.7,3.1,3.1,0,0,0-2,.7c-.5.4-.5,1.1-.5,2a24.3,24.3,0,0,0,.3,3.8c.5,4.4,1.2,7.5,1.3,8.4a1.7,1.7,0,0,0,.1.7,2.9,2.9,0,0,0,.4,1.6c.4.6,1.4.6,2.3.7C487.3,451,489.5,450.1,490.1,449.3Z" transform="translate(0 0.1)"/><path class="cls-3" d="M379.6,457.5l.7-.4a1.8,1.8,0,0,0,.4-1,4.5,4.5,0,0,0,.3-1.6,1.2,1.2,0,0,0-.4-1.1,1.7,1.7,0,0,0-1-.6h-2.9c-.3.1-.6.1-.8.3l-.6.7a2.7,2.7,0,0,0,.4,3.1,4,4,0,0,0,2.1.9Z" transform="translate(0 0.1)"/><path class="cls-3" d="M381.6,478.2a1.3,1.3,0,0,0,.6-.7.7.7,0,0,0,.1-.6v-2.1l-.2-3.3-.4-3.6c0-.6-.2-1.2-.2-2a6.3,6.3,0,0,0-.3-1.9,5.9,5.9,0,0,0-.5-2.3,2.8,2.8,0,0,0-1.6-1.2,3.3,3.3,0,0,0-2.2.1c-.6.3-.8,1-1,1.8s-.5,2.1-.8,3.7c-.7,4.4-.9,7.6-1,8.4a2.2,2.2,0,0,0-.1.8c-.1.9-.2,1.3,0,1.6a4.9,4.9,0,0,0,2,1.3C378.4,479,380.8,478.8,381.6,478.2Z" transform="translate(0 0.1)"/><path class="cls-3" d="M328.8,481a4.5,4.5,0,0,0,2.1-1.2c.7-.7.9-1.5,1.3-3,1.1-4,1.3-3.9,1.3-5.1a5.4,5.4,0,0,0-.8-3.7,6,6,0,0,0-2.7-2,13.3,13.3,0,0,0-4-.5,12.1,12.1,0,0,0-3.8,0,5.5,5.5,0,0,0-2.5.7,4.9,4.9,0,0,0-1.8,2c-.4.9-2.9,5.9.3,9.8a9.3,9.3,0,0,0,5.7,3.1A11.6,11.6,0,0,0,328.8,481Z" transform="translate(0 0.1)"/><path class="cls-3" d="M330.5,500a2.7,2.7,0,0,0,1.2-.3c.3-.1.2-.3.2-.4a.7.7,0,0,1-.1-.5,9.4,9.4,0,0,0-.4-1.6l-.3-.8a1.4,1.4,0,0,0-.2-.6l-1-2.1c0-.3-.4-.7-.5-1.2l-.6-1.2c-.7-1.2-1-1.4-1.4-1.5a12.8,12.8,0,0,0-3.3-1.1,17.4,17.4,0,0,0-4.5-.6c-1.3.1-1.6.4-2,.9a14.3,14.3,0,0,0-1.4,2c-1.2,2.5-1.4,4.4-1.7,4.8a.9.9,0,0,0-.1.5c-.2.5.1.6,0,1-.2,4.2,1.7,2.3,4.4,2.7A45.8,45.8,0,0,0,330.5,500Z" transform="translate(0 0.1)"/><path class="cls-3" d="M394.6,377.5a3.3,3.3,0,0,0,1.6-.7,5,5,0,0,0,1.3-2.2c1.3-2.9,1.4-2.7,1.6-3.7a4.5,4.5,0,0,0,0-2.8,4,4,0,0,0-1.6-1.8,7.9,7.9,0,0,0-2.6-.8,10.9,10.9,0,0,0-2.6-.4,5.7,5.7,0,0,0-1.8.3,3.2,3.2,0,0,0-1.4,1.4c-.4.6-2.9,4.1-1.2,7.4a5.8,5.8,0,0,0,3.4,2.9A7.5,7.5,0,0,0,394.6,377.5Z" transform="translate(0 0.1)"/><path class="cls-3" d="M385.6,427.1a4,4,0,0,0,1.6-1.3,4.4,4.4,0,0,0,.6-1.6,39.2,39.2,0,0,1,1.3-4.9l1.5-7.7,1.5-8.9c.3-1.2.4-2.8.8-4.7a36.9,36.9,0,0,0,.8-4.6c.6-4.4.5-5,.3-5.7a5.1,5.1,0,0,0-2.1-3.4c-.2-.1-2.1-1.4-4-.7s-2.1,2-2.9,3.9a91.9,91.9,0,0,0-3.8,8.5c-4,10.1-6.3,17.4-7.1,19.4l-.7,1.7c-.7,2.1-1.1,3.1-1,3.9s1.5,2.7,3,3.8C379.3,427.7,383.8,428.1,385.6,427.1Z" transform="translate(0 0.1)"/><path class="cls-3" d="M333.2,405.8a1.6,1.6,0,0,0-.8.6,2.3,2.3,0,0,0-.4,1.4c-.2,1.8-.3,1.8-.2,2.3a2.7,2.7,0,0,0,.5,1.5,3.5,3.5,0,0,0,1.4.6,5.4,5.4,0,0,0,1.8,0,3.2,3.2,0,0,0,1.7-.2,3.1,3.1,0,0,0,1-.5,2.1,2.1,0,0,0,.6-1c.2-.4.9-2.7-.7-4.1a5.2,5.2,0,0,0-2.7-1A5.4,5.4,0,0,0,333.2,405.8Z" transform="translate(0 0.1)"/><path class="cls-3" d="M328.7,378a2.3,2.3,0,0,0-.7,1,2.8,2.8,0,0,0-.1.9c.1.6.2,1.5.3,2.8l.6,4.4.9,4.9c0,.7.3,1.6.4,2.7a21.7,21.7,0,0,0,.4,2.5c.6,2.5.8,2.8,1,3.1a3.5,3.5,0,0,0,2,1.4,3.2,3.2,0,0,0,2.7-.3c.7-.5.8-1.4,1-2.5a46,46,0,0,0,.6-5.2c.4-6,.4-10.3.5-11.5v-1.1a5.5,5.5,0,0,0-.1-2.2c-.4-.8-1.5-1.2-2.6-1.5C332.5,376.6,329.7,377.2,328.7,378Z" transform="translate(0 0.1)"/><path class="cls-3" d="M349.6,289.1a4.2,4.2,0,0,0,1.4-.9c.6-.5.7-1.1,1.1-2.3.9-3,1-2.9,1.1-3.9a4.5,4.5,0,0,0-.4-2.8,4.4,4.4,0,0,0-1.7-1.6l-2.7-.5a6.2,6.2,0,0,0-2.7,0,3.4,3.4,0,0,0-1.7.5,4.7,4.7,0,0,0-1.3,1.5c-.3.7-2.3,4.5-.3,7.5a6.1,6.1,0,0,0,3.8,2.5A6.5,6.5,0,0,0,349.6,289.1Z" transform="translate(0 0.1)"/><path class="cls-3" d="M346.8,339.4a4,4,0,0,0,1.4-1.5,2.9,2.9,0,0,0,.4-1.6c.1-1.2.3-2.8.7-5l.5-7.9.4-9c.2-1.2.1-2.8.3-4.7a35.2,35.2,0,0,0,.1-4.7c.1-4.4-.1-5.1-.3-5.7a6.1,6.1,0,0,0-2.6-3.1c-.2-.1-2.3-1.2-4.1-.2s-1.8,2.3-2.4,4.2-1.7,5-2.7,8.9c-2.7,10.5-4,18.1-4.6,20.2,0,0-.2.7-.4,1.8a13.4,13.4,0,0,0-.6,4c.3,1.5,1.8,2.4,3.4,3.3C340.6,340.8,345.1,340.6,346.8,339.4Z" transform="translate(0 0.1)"/><path class="cls-3" d="M407.5,300.7a1.7,1.7,0,0,0,.6-.6,3.4,3.4,0,0,0,.1-1c-.1-1.4,0-1.3-.2-1.7a1.4,1.4,0,0,0-.7-1,2,2,0,0,0-1.1-.3l-1.4.3-1.3.5-.8.5a1.2,1.2,0,0,0-.4.8c0,.3-.3,2.1,1.2,2.9a3.6,3.6,0,0,0,2.3.2A4.9,4.9,0,0,0,407.5,300.7Z" transform="translate(0 0.1)"/><path class="cls-3" d="M415.1,320a2.2,2.2,0,0,0,.5-.8c0-.3-.1-.5-.1-.7a6.6,6.6,0,0,1-.6-2l-1.1-3-1.5-3.4a14.6,14.6,0,0,0-.7-1.9,13.4,13.4,0,0,0-.7-1.8,8.2,8.2,0,0,0-1.2-2,2.9,2.9,0,0,0-1.8-.7,3.1,3.1,0,0,0-2.1.7c-.5.4-.5,1.1-.5,2a34.6,34.6,0,0,0,.3,3.8c.5,4.4,1.2,7.5,1.3,8.4a1.7,1.7,0,0,0,.1.7,2.9,2.9,0,0,0,.4,1.6c.5.6,1.4.6,2.3.7C412.3,321.7,414.5,320.8,415.1,320Z" transform="translate(0 0.1)"/><path class="cls-3" d="M289.7,328.2l.7-.4a3,3,0,0,0,.4-1c.2-1.3.3-1.2.3-1.6a1.7,1.7,0,0,0-.4-1.2,3.1,3.1,0,0,0-1-.5l-1.5-.2h-1.4l-.9.3a1.8,1.8,0,0,0-.5.7,2.6,2.6,0,0,0,.3,3.1,3.5,3.5,0,0,0,2.2.8A5.4,5.4,0,0,0,289.7,328.2Z" transform="translate(0 0.1)"/><path class="cls-3" d="M291.7,348.9c.2-.2.5-.4.6-.7a1.7,1.7,0,0,0,.1-.7v-2l-.3-3.3-.4-3.7a12.3,12.3,0,0,0-.2-1.9,13.6,13.6,0,0,0-.2-2c-.3-1.7-.4-2-.6-2.2a2.6,2.6,0,0,0-1.5-1.2,2.8,2.8,0,0,0-2.2,0,2.5,2.5,0,0,0-1,1.8c-.2,1-.6,2.2-.8,3.8-.7,4.4-.9,7.6-1.1,8.4a2.2,2.2,0,0,1-.1.8,4.3,4.3,0,0,0,0,1.6c.3.7,1.2,1,2.1,1.3A7.7,7.7,0,0,0,291.7,348.9Z" transform="translate(0 0.1)"/><path class="cls-3" d="M251.5,357a4.5,4.5,0,0,0,2.1-1.2c.7-.7.9-1.4,1.3-3,1-4,1.3-3.9,1.3-5.1a6.4,6.4,0,0,0-.8-3.6,6,6,0,0,0-2.7-2,9.1,9.1,0,0,0-4-.6,12.8,12.8,0,0,0-3.9,0,5.1,5.1,0,0,0-2.4.7,4.6,4.6,0,0,0-1.8,2.1c-.4.8-3,5.8.2,9.7a10.2,10.2,0,0,0,5.8,3.2A11.6,11.6,0,0,0,251.5,357Z" transform="translate(0 0.1)"/><path class="cls-3" d="M251.9,422.5a5.2,5.2,0,0,0,1.9-2,3.8,3.8,0,0,0,.5-2.1,48.9,48.9,0,0,1,.5-6.6V401.6l-.2-11.7c.1-1.6-.2-3.7-.1-6.2s0-3.1-.1-6.1c-.4-5.7-.7-6.5-1.1-7.3a7.8,7.8,0,0,0-4-4c-.3-.1-3.5-1.4-6-.1s-2.4,3-3.1,5.5a91.8,91.8,0,0,0-3.2,11.7c-3.1,13.7-4.4,23.6-5.1,26.3,0,0-.2,1-.4,2.4s-.8,4.1-.5,5.2,2.9,3.1,5.3,4.2C242.9,424.5,249.5,424.1,251.9,422.5Z" transform="translate(0 0.1)"/><path class="cls-3" d="M243.2,475.1a4.3,4.3,0,0,0,1.2-1.1,5.3,5.3,0,0,0,.5-2.5c.2-3.2.3-3.2.2-4.1a5.2,5.2,0,0,0-1-2.6,4.5,4.5,0,0,0-2.1-1.2,8.2,8.2,0,0,0-2.7.2,10.9,10.9,0,0,0-2.6.5,2.9,2.9,0,0,0-1.5.9,3.2,3.2,0,0,0-1,1.8c-.1.7-1.2,4.9,1.5,7.4a6,6,0,0,0,4.2,1.5A7.3,7.3,0,0,0,243.2,475.1Z" transform="translate(0 0.1)"/><path class="cls-3" d="M248.5,499a1.6,1.6,0,0,0,.9-.7.9.9,0,0,0,0-.7l-.3-2-.9-3-1.2-3.5-.6-1.9a13.4,13.4,0,0,0-.7-1.8c-.7-1.7-1-1.9-1.3-2.1a6.2,6.2,0,0,0-2.6-.9,8,8,0,0,0-3.4.4,2.3,2.3,0,0,0-1.3,1.8,23.2,23.2,0,0,0-.7,3.8c-.4,4.3-.2,7.3-.3,8.2a1.7,1.7,0,0,0-.1.7c0,.9,0,1.3.3,1.6a9.7,9.7,0,0,0,3.4.9C243.6,500.2,247.3,499.7,248.5,499Z" transform="translate(0 0.1)"/><path class="cls-3" d="M142.2,489a1.8,1.8,0,0,0-.7.5c-.1.2-.1.3,0,.4a8.8,8.8,0,0,1,.2,1.4l.5,2.1.9,2.4c0,.3.3.8.4,1.3a2.8,2.8,0,0,0,.4,1.2c.5,1.2.7,1.3.9,1.5a4.4,4.4,0,0,0,1.9.7,7.4,7.4,0,0,0,2.6-.2,1.5,1.5,0,0,0,1-1.2,10.2,10.2,0,0,0,.6-2.5,52.9,52.9,0,0,0,.5-5.6.9.9,0,0,0,.1-.5,4.1,4.1,0,0,0-.1-1.1,5.9,5.9,0,0,0-2.6-.7A14.8,14.8,0,0,0,142.2,489Z" transform="translate(0 0.1)"/><path class="cls-3" d="M175.9,418.1a3.6,3.6,0,0,0,2.6-3.2c.9-3.1,1-3,1.1-3.9a4.5,4.5,0,0,0-.4-2.8,4.4,4.4,0,0,0-1.7-1.6,8.7,8.7,0,0,0-2.8-.5,11.3,11.3,0,0,0-2.6-.1,4.8,4.8,0,0,0-1.7.5,5.1,5.1,0,0,0-1.3,1.6c-.3.6-2.3,4.4-.3,7.5a7.5,7.5,0,0,0,3.8,2.5A9.2,9.2,0,0,0,175.9,418.1Z" transform="translate(0 0.1)"/><path class="cls-3" d="M173.2,468.4a4,4,0,0,0,1.4-1.5,2.9,2.9,0,0,0,.4-1.6c.1-1.2.3-2.8.6-5.1l.6-7.8.4-9a38.7,38.7,0,0,1,.3-4.8c.1-1.2.1-2.4.1-4.7.1-4.4-.1-5-.3-5.6a6.1,6.1,0,0,0-2.6-3.1,4.3,4.3,0,0,0-4.1-.3c-1.2.7-1.8,2.3-2.4,4.2s-1.7,5-2.7,9c-2.7,10.5-4.1,18-4.6,20.1l-.5,1.8c-.4,2.1-.7,3.2-.5,4s1.8,2.4,3.4,3.3C167,469.7,171.5,469.6,173.2,468.4Z" transform="translate(0 0.1)"/><path class="cls-3" d="M203.1,441.1a1.7,1.7,0,0,0,.6-.6,4.1,4.1,0,0,0,.1-1.1c-.1-1.3,0-1.3-.2-1.6a1.2,1.2,0,0,0-.7-1,2,2,0,0,0-1.1-.3l-1.5.3-1.3.5a1.8,1.8,0,0,0-.7.5c-.1,0-.3.3-.4.8a2.4,2.4,0,0,0,1.2,2.8,4.5,4.5,0,0,0,2.3.3A4.9,4.9,0,0,0,203.1,441.1Z" transform="translate(0 0.1)"/><path class="cls-3" d="M210.7,460.4a1.2,1.2,0,0,0,.4-.8.9.9,0,0,0-.1-.7c-.1-.4-.3-1.1-.5-2l-1.2-3-1.4-3.5c-.1-.5-.5-1-.7-1.8a14.2,14.2,0,0,0-.8-1.8c-.7-1.6-.9-1.9-1.1-2a3.2,3.2,0,0,0-1.9-.7,2.5,2.5,0,0,0-2,.6,2.9,2.9,0,0,0-.5,2,25.6,25.6,0,0,0,.3,3.9c.5,4.4,1.2,7.5,1.3,8.3a2.2,2.2,0,0,0,.1.8,2.9,2.9,0,0,0,.4,1.6,3.2,3.2,0,0,0,2.3.6C207.9,462,210.1,461.2,210.7,460.4Z" transform="translate(0 0.1)"/><path class="cls-3" d="M110.4,457.2l.7-.4c.3-.3.3-.5.4-1a9.4,9.4,0,0,0,.4-1.6,2.8,2.8,0,0,0-.4-1.2l-1-.5-1.5-.2h-1.4l-.9.3c-.1,0-.3.2-.6.7a2.7,2.7,0,0,0,.4,3.1,3.5,3.5,0,0,0,2.2.8A4.9,4.9,0,0,0,110.4,457.2Z" transform="translate(0 0.1)"/><path class="cls-3" d="M112.4,477.9a2.3,2.3,0,0,0,.7-.7,1.7,1.7,0,0,0,.1-.7,6.7,6.7,0,0,1,0-2l-.3-3.3-.4-3.7c0-.5-.2-1.1-.2-1.9a16.8,16.8,0,0,0-.2-2,5.4,5.4,0,0,0-.6-2.2,2.6,2.6,0,0,0-1.5-1.2,2.8,2.8,0,0,0-2.2,0,2.5,2.5,0,0,0-1,1.8c-.2,1-.6,2.2-.8,3.8-.7,4.4-.9,7.6-1.1,8.4a2.2,2.2,0,0,1-.1.8,4.3,4.3,0,0,0,0,1.6c.3.7,1.1,1,2,1.3C109.3,478.7,111.6,478.4,112.4,477.9Z" transform="translate(0 0.1)"/><path class="cls-3" d="M72.3,481.3a4.1,4.1,0,0,0,2-1.2c.8-.7.9-1.5,1.4-3.1,1-3.9,1.3-3.8,1.3-5a6.7,6.7,0,0,0-.8-3.7,6,6,0,0,0-2.7-2,13.3,13.3,0,0,0-4-.5,25.4,25.4,0,0,0-3.9-.1,6.8,6.8,0,0,0-2.4.8,4.9,4.9,0,0,0-1.8,2c-.5.9-3,5.9.2,9.8a9.5,9.5,0,0,0,5.8,3.1A11.6,11.6,0,0,0,72.3,481.3Z" transform="translate(0 0.1)"/><path class="cls-3" d="M79.5,500h1.6c.3-.1.2-.2.2-.3s-.2.7-.2.3l-1.2-2.7-1.7-1.8c0-.3-.6-.6-.7-1l-.9-.9a6.2,6.2,0,0,0-1.9-1.2,36.9,36.9,0,0,0-4.5-1.1c-.3,0-3.6-.6-5.9-.7s-2,.1-2.4.4a3.9,3.9,0,0,0-1.7,1.4,10.6,10.6,0,0,0-1.8,3.3c-.1.1-.2.2-.2.3-.1,4-.5,3.8-.1,4a56.6,56.6,0,0,0,5.9,1.5C70.7,502.7,77.3,499.9,79.5,500Z" transform="translate(0 0.1)"/><path class="cls-3" d="M114.9,369a3.7,3.7,0,0,0,1.3-1.2,4.3,4.3,0,0,0,.4-2.5c.2-3.2.4-3.1.3-4a5.4,5.4,0,0,0-1.1-2.7,3.1,3.1,0,0,0-2-1.1,6.6,6.6,0,0,0-2.8.1,11.1,11.1,0,0,0-2.5.5,3.3,3.3,0,0,0-2.5,2.7c-.2.7-1.2,4.9,1.4,7.4a6.7,6.7,0,0,0,4.3,1.6A7.2,7.2,0,0,0,114.9,369Z" transform="translate(0 0.1)"/><path class="cls-3" d="M123.8,418.6a4,4,0,0,0,1-1.8,2.2,2.2,0,0,0,0-1.6,44,44,0,0,1-.5-5.1l-1.3-7.8-1.7-8.8c-.1-1.3-.6-2.8-.8-4.7a37.3,37.3,0,0,0-.9-4.6c-1-4.3-1.3-4.9-1.6-5.4a6.6,6.6,0,0,0-3.2-2.5c-.3,0-2.5-.6-4.1.7s-1.2,2.7-1.3,4.7a72.6,72.6,0,0,0-.6,9.3c-.3,10.8.1,18.5,0,20.7v1.8c.1,2.2.1,3.3.4,4s2.4,2,4.1,2.5C118,421.3,122.4,420.1,123.8,418.6Z" transform="translate(0 0.1)"/><path class="cls-3" d="M54.9,405.6a1.8,1.8,0,0,0-.8.7c-.3.3-.3.7-.4,1.4s-.3,1.7-.3,2.2a3.9,3.9,0,0,0,.6,1.5,3.3,3.3,0,0,0,1.3.7h1.9a4.5,4.5,0,0,0,1.6-.3l1.1-.4a2.1,2.1,0,0,0,.6-1,4,4,0,0,0-.7-4.2,4.7,4.7,0,0,0-2.8-.9A7.6,7.6,0,0,0,54.9,405.6Z" transform="translate(0 0.1)"/><path class="cls-3" d="M50.4,377.8a3.6,3.6,0,0,0-.7,1,2.8,2.8,0,0,0-.1.9c.1.7.2,1.6.3,2.8l.6,4.4.8,4.9c.1.8.4,1.6.5,2.7a23.4,23.4,0,0,0,.4,2.6c.6,2.4.7,2.7,1,3a3.7,3.7,0,0,0,4.7,1.1c.7-.5.8-1.4,1-2.5a37.5,37.5,0,0,0,.6-5.2c.4-6,.4-10.3.5-11.5v-1a5.9,5.9,0,0,0-.1-2.3c-.4-.8-1.5-1.1-2.6-1.4C54.2,376.4,51.4,377,50.4,377.8Z" transform="translate(0 0.1)"/><path class="cls-3" d="M76.3,292.8a3.8,3.8,0,0,0,1.5-.9,4.9,4.9,0,0,0,1.1-2.3c.9-3.1,1-3,1.1-3.9a4.5,4.5,0,0,0-.4-2.8,4.4,4.4,0,0,0-1.7-1.6,8.6,8.6,0,0,0-2.7-.5,12.2,12.2,0,0,0-2.7-.1,4.8,4.8,0,0,0-1.7.5,10.1,10.1,0,0,0-1.3,1.6c-.3.6-2.3,4.5-.3,7.5a7.5,7.5,0,0,0,3.8,2.5A9.2,9.2,0,0,0,76.3,292.8Z" transform="translate(0 0.1)"/><path class="cls-3" d="M73.6,343.1a4,4,0,0,0,1.4-1.5,2.9,2.9,0,0,0,.4-1.6c.1-1.2.3-2.8.6-5.1l.6-7.8.4-9a38.7,38.7,0,0,1,.3-4.8c.1-1.2.1-2.3.1-4.7.1-4.4-.1-5-.3-5.6a6.1,6.1,0,0,0-2.6-3.1c-.2-.1-2.3-1.2-4.1-.2s-1.8,2.2-2.4,4.1-1.7,5-2.7,9c-2.7,10.5-4,18.1-4.6,20.1l-.5,1.8c-.4,2.1-.7,3.2-.5,4a7.7,7.7,0,0,0,3.4,3.3C67.4,344.4,71.9,344.3,73.6,343.1Z" transform="translate(0 0.1)"/><path class="cls-3" d="M132.9,310.2a.9.9,0,0,0,.6-.6c.2-.3.2-.5.1-1a9.7,9.7,0,0,0-.1-1.7,2.3,2.3,0,0,0-.7-1,2.7,2.7,0,0,0-1.2-.3,3.3,3.3,0,0,0-1.4.4l-1.3.4-.8.5c0,.1-.3.3-.3.8a2.6,2.6,0,0,0,1.2,2.9,3,3,0,0,0,2.3.2A4.4,4.4,0,0,0,132.9,310.2Z" transform="translate(0 0.1)"/><path class="cls-3" d="M140.6,329.6a3.6,3.6,0,0,0,.4-.9c0-.3,0-.5-.1-.6a6.6,6.6,0,0,1-.6-2l-1.1-3.1-1.4-3.4a10.7,10.7,0,0,1-.7-1.9l-.8-1.7a7.2,7.2,0,0,0-1.2-2.1,2.4,2.4,0,0,0-1.8-.7,3.1,3.1,0,0,0-2.1.7c-.5.4-.5,1.2-.4,2s.1,2.5.2,3.8c.6,4.4,1.2,7.5,1.3,8.4a1.7,1.7,0,0,1,.1.7,4.3,4.3,0,0,0,.5,1.6c.4.6,1.3.6,2.3.7A8.7,8.7,0,0,0,140.6,329.6Z" transform="translate(0 0.1)"/><path class="cls-3" d="M16.7,328.4a1.8,1.8,0,0,0,.5-.7,2.1,2.1,0,0,0-.1-1.1c-.4-1.3-.3-1.3-.5-1.6s-.4-.7-.8-.8a2.5,2.5,0,0,0-1.2-.1l-1.4.6-1.2.7c-.2.2-.5.3-.6.6a1.5,1.5,0,0,0-.2.9,2.6,2.6,0,0,0,1.7,2.6,3.6,3.6,0,0,0,2.3-.2A6,6,0,0,0,16.7,328.4Z" transform="translate(0 0.1)"/><path class="cls-3" d="M27.9,345.9a1.5,1.5,0,0,0,.2-.9,1.4,1.4,0,0,0-.2-.6l-.9-1.9-1.7-2.8-2.1-3.1-1-1.6a5.7,5.7,0,0,0-1.1-1.6c-1-1.5-1.3-1.7-1.5-1.8a2.8,2.8,0,0,0-2-.4,4.5,4.5,0,0,0-1.9,1.1c-.4.5-.2,1.2,0,2a22.2,22.2,0,0,0,.9,3.7c1.4,4.3,2.7,7.2,2.9,8l.2.7c.4.9.5,1.3.8,1.5a5.2,5.2,0,0,0,2.4.2C25.4,348,27.4,346.8,27.9,345.9Z" transform="translate(0 0.1)"/><path class="cls-3" d="M205.7,298.5a4.5,4.5,0,0,0,2.1-1.2c.8-.7.9-1.4,1.3-3,1.1-4,1.3-3.9,1.4-5.1a5.7,5.7,0,0,0-.9-3.6,5.2,5.2,0,0,0-2.6-2,9.5,9.5,0,0,0-4.1-.6,12.1,12.1,0,0,0-3.8,0,5.5,5.5,0,0,0-2.5.7,5.8,5.8,0,0,0-1.7,2.1c-.5.8-3,5.8.2,9.7a9.3,9.3,0,0,0,5.7,3.1A9.1,9.1,0,0,0,205.7,298.5Z" transform="translate(0 0.1)"/><path class="cls-3" d="M206.2,364a6.1,6.1,0,0,0,1.9-2,5.2,5.2,0,0,0,.4-2.1c0-1.5.2-3.6.5-6.6V343.1l-.2-11.7c.1-1.6-.2-3.7,0-6.2a41.5,41.5,0,0,0-.2-6.1c-.3-5.7-.6-6.6-1-7.3a9.6,9.6,0,0,0-4-4c-.4-.1-3.5-1.4-6-.1s-2.5,3-3.2,5.5-2.1,6.5-3.2,11.7c-3,13.7-4.4,23.6-5,26.3l-.5,2.4c-.5,2.7-.7,4.1-.4,5.2s2.9,3.1,5.3,4.2C197.1,366,203.7,365.6,206.2,364Z" transform="translate(0 0.1)"/><path class="cls-3" d="M254.4,287.5a3,3,0,0,0-1.3.9c-.4.5-.4,1-.6,2-.3,2.5-.4,2.4-.3,3.2a3.3,3.3,0,0,0,.9,2.1,4.2,4.2,0,0,0,2,1,13.1,13.1,0,0,0,2.8-.1l2.5-.3a4.6,4.6,0,0,0,1.6-.7,2.1,2.1,0,0,0,1-1.4c.2-.5,1.4-3.8-1.1-5.9a7.7,7.7,0,0,0-4.2-1.3A7.4,7.4,0,0,0,254.4,287.5Z" transform="translate(0 0.1)"/><path class="cls-3" d="M247.5,247.8a4.9,4.9,0,0,0-1.1,1.4,1.5,1.5,0,0,0,0,1.3c.1,1,.2,2.2.3,4.1l.9,6.2,1.4,7c0,1,.4,2.3.6,3.8s.4,2.5.7,3.7c.8,3.4,1.1,3.9,1.5,4.3a4.7,4.7,0,0,0,3.1,2,5.5,5.5,0,0,0,4-.4c1.1-.7,1.4-2,1.6-3.6s.7-4.9.9-7.4c.7-8.6.6-14.7.8-16.4a7.6,7.6,0,0,0,.1-1.5c0-1.7.1-2.6-.2-3.2s-2.3-1.6-4-2.1C253.4,245.8,249,246.6,247.5,247.8Z" transform="translate(0 0.1)"/><path class="cls-3" d="M302.5,417l.8-.2a1.5,1.5,0,0,0,.6-.9c.6-1.2.7-1.1.8-1.5a2.5,2.5,0,0,0-.1-1.2,2.4,2.4,0,0,0-.9-.8,3.4,3.4,0,0,0-1.4-.5l-1.3-.3h-.9l-.8.5a2.4,2.4,0,0,0-.4,3,3.8,3.8,0,0,0,1.9,1.4A4.8,4.8,0,0,0,302.5,417Z" transform="translate(0 0.1)"/><path class="cls-3" d="M299.1,437.5l.8-.5.3-.6a14.6,14.6,0,0,1,.5-2l.6-3.2.6-3.7c.1-.5.1-1.2.3-2s.1-.9.3-1.9a5.5,5.5,0,0,0,0-2.3,3.1,3.1,0,0,0-1.2-1.6,3.8,3.8,0,0,0-2.1-.5,2.3,2.3,0,0,0-1.4,1.5,22.1,22.1,0,0,0-1.8,3.4c-1.8,4.1-2.8,7.1-3.2,7.9l-.3.7c-.3.8-.5,1.2-.4,1.6a4.1,4.1,0,0,0,1.6,1.7C294.5,436.5,298.2,437.8,299.1,437.5Z" transform="translate(0 0.1)"/><path class="cls-3" d="M22.7,459.8a4.1,4.1,0,0,0-1.3,1c-.5.5-.5.9-.6,1.9-.3,2.5-.5,2.5-.4,3.2a3.6,3.6,0,0,0,.9,2.2,7.2,7.2,0,0,0,2,.9,6.6,6.6,0,0,0,2.8,0l2.6-.3,1.6-.7a4.5,4.5,0,0,0,1-1.4c.2-.6,1.4-3.9-1.2-5.9a7.1,7.1,0,0,0-4.2-1.4A11.3,11.3,0,0,0,22.7,459.8Z" transform="translate(0 0.1)"/><path class="cls-3" d="M15.8,420.2a3,3,0,0,0-1.1,1.4,2.9,2.9,0,0,0-.1,1.3,26.9,26.9,0,0,1,.3,4l1,6.2,1.3,7.1c.1,1,.5,2.2.7,3.8s.4,2.4.7,3.6c.8,3.5,1.1,4,1.4,4.4a5.9,5.9,0,0,0,7.2,1.6c1.1-.7,1.3-2.1,1.6-3.7a59.6,59.6,0,0,0,.9-7.3c.7-8.6.6-14.8.8-16.5v-1.4c.1-1.8.1-2.6-.2-3.2s-2.2-1.7-4-2.1C21.7,418.2,17.3,419,15.8,420.2Z" transform="translate(0 0.1)"/><path class="cls-3" d="M453,394.6a3.8,3.8,0,0,0-1.3.9,4.7,4.7,0,0,0-.6,2c-.3,2.5-.4,2.5-.3,3.2a2.9,2.9,0,0,0,.9,2.1,4.2,4.2,0,0,0,2,1,6.6,6.6,0,0,0,2.8,0,7.3,7.3,0,0,0,2.5-.4,4.4,4.4,0,0,0,1.6-.6,2.1,2.1,0,0,0,1-1.4c.2-.6,1.4-3.9-1.1-5.9a7.1,7.1,0,0,0-4.2-1.4A12.6,12.6,0,0,0,453,394.6Z" transform="translate(0 0.1)"/><path class="cls-3" d="M446.1,355a3,3,0,0,0-1.1,1.4,1.5,1.5,0,0,0,0,1.3c.1.9.2,2.2.3,4l.9,6.2,1.4,7.1c0,1,.4,2.2.6,3.8s.4,2.4.7,3.6c.8,3.5,1.1,4,1.5,4.4a4.7,4.7,0,0,0,3.1,2,5.5,5.5,0,0,0,4-.4c1.1-.7,1.4-2.1,1.6-3.7s.7-4.9.9-7.3c.7-8.6.6-14.8.8-16.5a6.6,6.6,0,0,0,.1-1.4c0-1.8.1-2.6-.2-3.2s-2.3-1.7-4-2.1C452,353,447.6,353.8,446.1,355Z" transform="translate(0 0.1)"/><path class="cls-3" d="M490.4,294.5a1.6,1.6,0,0,0-.8.6,2.3,2.3,0,0,0-.4,1.4c-.2,1.8-.3,1.7-.2,2.2a2.3,2.3,0,0,0,1.9,2.2,5.4,5.4,0,0,0,1.8,0l1.7-.2,1-.5a2.1,2.1,0,0,0,.6-1c.2-.4,1-2.7-.7-4.1a4.5,4.5,0,0,0-2.7-1A5.4,5.4,0,0,0,490.4,294.5Z" transform="translate(0 0.1)"/><path class="cls-3" d="M485.9,266.6a3.6,3.6,0,0,0-.7,1,1.7,1.7,0,0,0,0,1c.1.6.1,1.5.2,2.8l.6,4.3.9,5c0,.7.3,1.6.4,2.6a16.6,16.6,0,0,0,.5,2.6,18,18,0,0,0,.9,3.1,4.1,4.1,0,0,0,2,1.4,4.2,4.2,0,0,0,2.7-.3,3.5,3.5,0,0,0,1-2.6,44.3,44.3,0,0,0,.6-5.1c.5-6.1.4-10.4.5-11.6a3.4,3.4,0,0,1,.1-1,5.5,5.5,0,0,0-.2-2.2c-.4-.9-1.5-1.2-2.6-1.5C489.8,265.2,486.9,265.8,485.9,266.6Z" transform="translate(0 0.1)"/><path class="cls-3" d="M457.3,308.8c.2-.1.6-.1.8-.3a1.5,1.5,0,0,0,.6-.9,4.4,4.4,0,0,0,.6-1.6,1.7,1.7,0,0,0-.2-1.2,2.2,2.2,0,0,0-.9-.7l-1.4-.4h-2.3a1.2,1.2,0,0,0-.7.5c-.2.3-1.2,1.8-.2,3.1a3.9,3.9,0,0,0,2,1.3Z" transform="translate(0 0.1)"/><path class="cls-3" d="M455.7,329.5a1.3,1.3,0,0,0,.7-.6,1.4,1.4,0,0,0,.2-.6l.4-2.1.3-3.2.3-3.7a13.4,13.4,0,0,1,.1-2,12.1,12.1,0,0,0,.1-1.9,6.5,6.5,0,0,0-.1-2.4,4.7,4.7,0,0,0-1.4-1.4,2.6,2.6,0,0,0-2.1-.3c-.7.2-1,.8-1.3,1.6a36.5,36.5,0,0,0-1.4,3.5c-1.5,4.2-2.3,7.3-2.6,8.1l-.2.8a2.2,2.2,0,0,0-.3,1.6c.1.7.9,1.1,1.8,1.6S454.8,329.9,455.7,329.5Z" transform="translate(0 0.1)"/><path class="cls-3" d="M218.7,24.8a4.5,4.5,0,0,0-1.4,1,5.5,5.5,0,0,0-.7,2.5c-.5,3.1-.7,3-.7,4a5,5,0,0,0,.8,2.7,4.5,4.5,0,0,0,1.9,1.4,8.2,8.2,0,0,0,2.7.1,7.6,7.6,0,0,0,2.6-.2,3.8,3.8,0,0,0,1.7-.8,3.6,3.6,0,0,0,1.1-1.6c.2-.7,1.7-4.8-.7-7.5a5.6,5.6,0,0,0-4-2A6.2,6.2,0,0,0,218.7,24.8Z" transform="translate(0 0.1)"/><path class="cls-3" d="M215.9.5a2.1,2.1,0,0,0-1,.6.9.9,0,0,0-.1.7,13.4,13.4,0,0,1,.1,2l.6,3.1.9,3.6c0,.5.3,1.2.4,1.9a5.8,5.8,0,0,0,.4,1.9c.6,1.8.8,2,1.1,2.2a4.9,4.9,0,0,0,2.5,1.2,6.5,6.5,0,0,0,3.4,0c1-.3,1.2-.9,1.5-1.7a16.1,16.1,0,0,0,1-3.6c.9-4.3,1.1-7.3,1.3-8.2a1.7,1.7,0,0,1,.1-.7c.1-.9.2-1.3-.1-1.6A11.4,11.4,0,0,0,224.7.6C220.9-.2,217.1,0,215.9.5Z" transform="translate(0 0.1)"/><path class="cls-3" d="M389.4,18.4a3.7,3.7,0,0,0-1.7,1c-.6.5-.7,1.1-1,2.3-.7,3.1-.9,3-.9,3.9a4,4,0,0,0,.8,2.8,5.1,5.1,0,0,0,2.3,1.5,9.8,9.8,0,0,0,3.4.3,17.1,17.1,0,0,0,3.2,0,3.8,3.8,0,0,0,3.4-2.2c.4-.7,2.3-4.6-.5-7.5a8.3,8.3,0,0,0-4.9-2.3A11.2,11.2,0,0,0,389.4,18.4Z" transform="translate(0 0.1)"/><path class="cls-3" d="M382.7,4.2h-1.3c-.3.1-.2.2-.2.2s.1-.5.2-.2l1.1,2.1,1.4,1.3c.1.1.6.4.7.7l.8.7,1.6.9,3.7.7,5,.5c1.4,0,1.7-.2,2-.4a4.5,4.5,0,0,0,1.4-1.1,18.6,18.6,0,0,1,1.4-2.5.4.4,0,0,0,.1-.3c0-3,.3-2.9,0-3a27.8,27.8,0,0,0-5-1.1C390,2,384.6,4.3,382.7,4.2Z" transform="translate(0 0.1)"/><path class="cls-3" d="M116.4,27.3a3.5,3.5,0,0,0-1.3,1.1c-.5.6-.5,1.2-.7,2.4-.6,3.1-.7,3.1-.7,4a5.2,5.2,0,0,0,.7,2.7,3.5,3.5,0,0,0,2,1.4,8.2,8.2,0,0,0,2.7.2l2.6-.3a5.1,5.1,0,0,0,1.7-.7,6.2,6.2,0,0,0,1.1-1.7c.2-.7,1.7-4.7-.7-7.5a6.7,6.7,0,0,0-4-2A8,8,0,0,0,116.4,27.3Z" transform="translate(0 0.1)"/><path class="cls-3" d="M113.7,3a2.1,2.1,0,0,0-1,.6c-.2.3-.2.6-.1.7a13.4,13.4,0,0,1,.1,2l.6,3.2.8,3.5a11.8,11.8,0,0,1,.4,2c.1.4.2.9.5,1.8a5.2,5.2,0,0,0,1,2.3,8.5,8.5,0,0,0,2.6,1.1,6.5,6.5,0,0,0,3.4,0,2.3,2.3,0,0,0,1.5-1.7,24.2,24.2,0,0,0,1-3.6c.9-4.3,1-7.3,1.2-8.2l.2-.7a2.9,2.9,0,0,0-.1-1.6c-.4-.6-1.8-.9-3.3-1.2C118.7,2.3,114.9,2.5,113.7,3Z" transform="translate(0 0.1)"/><path class="cls-3" d="M160.9,364.3l.8-.3c.3-.2.3-.4.5-.9a5.8,5.8,0,0,0,.6-1.5,1.7,1.7,0,0,0-.1-1.2,1.6,1.6,0,0,0-.9-.7,4.2,4.2,0,0,0-1.5-.4l-1.3-.2h-1c0,.1-.4.2-.6.6a2.4,2.4,0,0,0-.2,3.1,3.9,3.9,0,0,0,1.9,1.2A2.9,2.9,0,0,0,160.9,364.3Z" transform="translate(0 0.1)"/><path class="cls-3" d="M159.2,385a1.8,1.8,0,0,0,.7-.5,1.9,1.9,0,0,0,.2-.7l.4-2,.3-3.2.3-3.7a13.6,13.6,0,0,1,.2-2,12.1,12.1,0,0,1,.1-1.9,6.5,6.5,0,0,0-.2-2.4,2.5,2.5,0,0,0-1.3-1.4,2.9,2.9,0,0,0-2.2-.4c-.6.2-.9.9-1.3,1.6A20.8,20.8,0,0,0,155,372c-1.5,4.2-2.3,7.3-2.6,8.1l-.2.7c-.3.9-.4,1.3-.3,1.6a4.9,4.9,0,0,0,1.8,1.6C154.6,384.5,158.3,385.4,159.2,385Z" transform="translate(0 0.1)"/></g><g class="cls-4"><text class="cls-5" transform="translate(57.7 152.4) scale(1.03 1)">Notice</text><text class="cls-4" y="0.1"/></g><path class="cls-6" d="M315.3,307s14.1-43-5.5-71.9c0,0-45.4-63.1-102.2-5,0,0-29.2,30.7-9.1,77.8,0,0-17.6,24.1-13.7,45.6,0,0,23.2-29.6,41,1.3,0,0,1.5,11.4-.9,16.7,0,0,38.6,10.1,62.1,0,0,0-6.4-23.3,8.2-27.6,0,0,18.3-10,34.7,8.8C329.9,352.7,323.7,317.3,315.3,307Z" transform="translate(0 0.1)"/><path class="cls-7" d="M209.3,341s-38.1,3.3-16.8,36.4c0,0,20.1,15.2,35-6.9C227.5,370.5,228.5,341.6,209.3,341Z" transform="translate(0 0.1)"/><path class="cls-7" d="M309.4,341s-38.1,3.3-16.8,36.4c0,0,33.6,15.1,37.3-19.8C329.9,357.6,328.5,341.6,309.4,341Z" transform="translate(0 0.1)"/><path class="cls-7" d="M227.7,372.2s46.5,7,63.3,1.1.9-1.5.9-1.5,9.1,10.5,14.8,10c0,0-23.5,51-27.4,57.2,0,0,14.4,4.6,15.3,12.9,0,0-2.1,20.8-38.7,12.8,0,0-17.3.8-2.7-48.9l-3.5-3.9-10-.9-22.4,50.1s-12.8,18.2-25.6,4.5c0,0-24.4-23.6-13-42.3,0,0,11.8-9.7,18.2-3.7l6.3-39S220.9,382.8,227.7,372.2Z" transform="translate(0 0.1)"/><path class="cls-7" d="M220.2,217.1l-20.1,25.7L193,228.4l5.5-11.3S217.2,214.1,220.2,217.1Z" transform="translate(0 0.1)"/><path class="cls-7" d="M292.4,216.4s23.4,22.2,24.6,26.2l1.4-18-11.7-12.7Z" transform="translate(0 0.1)"/><path class="cls-8" d="M185.5,340s15.6-27.4,22.1-26.6c0,0,5.3-.8,20.8,8.9l-12.3-14.5s-15.5,1.7-17.3,0C198.8,307.8,184.4,333,185.5,340Z" transform="translate(0 0.1)"/><path class="cls-9" d="M323.6,326.2s-10.9-12.8-16.9-13.1c0,0-2-3.1-23.3,13.1l15.8-18.4s11.1,1.4,14.8,0Z" transform="translate(0 0.1)"/><polygon class="cls-10" points="226 317 226 354.4 229.1 363.7 239.9 367.5 226 317"/><polygon class="cls-10" points="288 318.7 286.5 352 282.8 365.5 274.9 366.5 288 318.7"/><path class="cls-11" d="M184.5,342.2s18.2-20.7,41.4-3.4v11.6L209.3,340l-15.2,6.1-6.6,6.5-3,1.4Z" transform="translate(0 0.1)"/><path class="cls-11" d="M288,337.5v11.9l11.5-8.1,17.4.9,13.3,6.2L328,340s-18.5-16.4-40-2.5" transform="translate(0 0.1)"/><path class="cls-11" d="M229.1,363.6s11.9,10.5,57.5,1.6v6.4l-26.2,5.1-26.7-3-7.7-1.4Z" transform="translate(0 0.1)"/><polygon class="cls-12" points="292.2 372.3 199.5 397.9 203.2 381.8 217.2 381 226 372.3 244.5 375.1 263.4 376.2 277.7 374.1 292.2 372.3"/><polygon class="cls-12" points="297 405.7 250.6 430.9 252.9 413.9 263.4 412.1 292.2 400.5 298.5 392.5 297 405.7"/><path class="cls-13" d="M178.3,445.3s.2-17.6,10.8-15.6a10.6,10.6,0,0,1,4.9,2.6,37,37,0,0,1,10.5,18.1,11.4,11.4,0,0,1-2.9,10.7c-2.3,2.4-6.1,4.1-12.1,2.7Z" transform="translate(0 0.1)"/><path class="cls-14" d="M222.5,217.9s.6,20.5-24,29.2l8.4-17Z" transform="translate(0 0.1)"/><path class="cls-14" d="M289.2,215.2s-2.7,20.1,27.2,33.4l-13.7-23.7Z" transform="translate(0 0.1)"/><ellipse class="cls-15" cx="258" cy="276.3" rx="48.7" ry="53.9"/><path class="cls-16" d="M212.6,292.6s38.3,36.3,89.6,2c0,0-6.4,23.2-25.5,32.9l-1.4.6h-.1a49.1,49.1,0,0,1-55.5-19.4C216.4,303.8,213.6,298.3,212.6,292.6Z" transform="translate(0 0.1)"/><path class="cls-17" d="M281.8,283.2s-27.2-14.5-48.7,0a47.6,47.6,0,0,0-.4,16.4,22.5,22.5,0,0,0,17.1,17.8,43.2,43.2,0,0,0,15.2.9,19,19,0,0,0,14.6-11.2C282,301.8,284,293.7,281.8,283.2Z" transform="translate(0 0.1)"/><path class="cls-18" d="M251.1,283.8a16.3,16.3,0,0,1,13.5.4s2.5,3.9-1.9,6.7a11.4,11.4,0,0,1-7.9,1.1,6.3,6.3,0,0,1-5.1-5.8A2.2,2.2,0,0,1,251.1,283.8Z" transform="translate(0 0.1)"/><ellipse class="cls-18" cx="237.7" cy="270.9" rx="7.5" ry="7.3"/><circle class="cls-19" cx="241.2" cy="268.4" r="1.3"/><ellipse class="cls-18" cx="275.9" cy="271.4" rx="7.5" ry="7.3"/><circle class="cls-19" cx="279.4" cy="268.8" r="1.3"/><path class="cls-18" d="M228.7,238.2l-.6,7.6s32.3-13.1,57.2,0l-1.9-8.6S255.7,225,228.7,238.2Z" transform="translate(0 0.1)"/><path class="cls-20" d="M330.5,350c-6.9-5.2-13-8-18.1-9.2-14.7-3.6-28.4,8.8-25.2,23.2a21.4,21.4,0,0,0,5.7,10.4c9.9,10.1,27.1,8.3,33.7-4.1,11.6-21.8-11.3-63.3-11.3-63.3,24.3-103.3-60.7-100.8-60.7-100.8-84.7,12.6-56.1,101.7-56.1,101.7a60,60,0,0,0-10.8,58.5,22.8,22.8,0,0,0,28,14.4c6-1.8,11.2-6.1,12.2-15.5a20.5,20.5,0,0,0,0-3.5c-.6-4.6-3.1-16-13.2-20a17.9,17.9,0,0,0-11.2-.6c-5.1,1.2-13.7,6.9-18.3,14.8" transform="translate(0 0.1)"/><path class="cls-20" d="M224.9,371.5s33.1,11.2,64.9-1" transform="translate(0 0.1)"/><line class="cls-20" x1="203.2" y1="381" x2="196.9" y2="419.9"/><path class="cls-20" d="M209.3,429.7s-18.5-21.4-30.1-6.9a18.9,18.9,0,0,0-3.3,16.7c2.3,8.1,7.5,21.2,18.2,27.7l1.9,1.3c3.9,2.9,22.9,12.1,43.7-57.5,0,0,40.6,11.9,67-29.2" transform="translate(0 0.1)"/><path class="cls-20" d="M253,411.8l-5.3,40.7a11.3,11.3,0,0,0,5.9,11.5l.6.3a20.5,20.5,0,0,0,5.3,1.7c6.5,1.1,26.5,3.5,33.8-8.8a10,10,0,0,0-3.6-13.7h-.2a18.6,18.6,0,0,0-11.8-2.2s17.5-23.4,24.5-53.1" transform="translate(0 0.1)"/><path class="cls-20" d="M292.4,216.4s36.9-13.1,23.7,29.4" transform="translate(0 0.1)"/><path class="cls-20" d="M222.5,217.9s-37.1-16.7-24.1,29" transform="translate(0 0.1)"/><text class="cls-21" transform="translate(229.5 349) scale(0.99 1)">Osuna</text><text class="cls-22" transform="translate(229.5 349) scale(0.99 1)">Osuna</text></svg>